<svg width="64" height="64" viewBox="0 0 64 64" fill="none" xmlns="http://www.w3.org/2000/svg">
<g clip-path="url(#clip0_2_3807)">
<path d="M58.9827 12.3721C58.2266 12.3721 57.3949 12.7124 57.0925 11.3325C56.412 7.55216 54.9944 6.49365 51.2329 6.49365H22.2941C21.7081 6.49365 21.1222 6.62597 21.0844 7.36314C21.0466 8.10031 21.5947 8.30823 22.1996 8.32714C22.8044 8.34604 23.3337 8.32714 23.8818 8.32714H50.6091C51.374 8.27523 52.1424 8.31969 52.8962 8.45945C53.2596 8.50479 53.6099 8.624 53.9254 8.80975C54.241 8.9955 54.5152 9.24386 54.7312 9.53954C54.9473 9.83523 55.1005 10.172 55.1815 10.5291C55.2625 10.8862 55.2696 11.2561 55.2023 11.6161C54.9944 13.1282 53.6145 12.3343 52.7828 12.391C49.853 12.5423 49.0025 13.4306 48.889 16.3793C48.87 16.6562 48.87 16.9341 48.889 17.211C49.1726 18.9122 48.6244 19.6116 46.772 19.4414C44.9197 19.2713 42.8593 19.4414 40.8746 19.4414C40.1753 19.4414 39.3247 19.4414 39.268 20.3298C39.2113 21.2182 40.1375 21.4639 40.9125 21.4639C42.8026 21.4639 44.844 21.5774 46.7909 21.4639C48.3976 21.3505 49.0025 21.8042 48.9269 23.5243C48.8134 26.1705 49.9287 27.1723 52.5938 27.3046C54.9188 27.3046 57.2437 27.3046 59.5497 27.3046C60.3492 27.4026 61.1599 27.2674 61.8842 26.9153C62.6086 26.5632 63.2157 26.0091 63.6325 25.3199V14.2245C63.1072 13.513 62.3934 12.9626 61.5717 12.6353C60.7501 12.3079 59.8533 12.2168 58.9827 12.3721ZM61.5344 19.7439C61.5344 25.1498 61.5344 25.1498 56.1663 25.1498C50.7981 25.1498 50.9683 25.1498 50.8926 19.8762C50.817 14.6026 50.8926 14.3379 56.3364 14.3379C61.5344 14.3379 61.5344 14.3379 61.5344 19.536V19.7439Z" fill="#4192CF"/>
<path d="M58.9824 48.4558C58.2075 48.4558 57.4325 48.6826 57.2435 47.3406C56.7709 43.8626 55.0697 42.4828 51.5729 42.4261C48.076 42.3694 44.428 42.4261 40.8555 42.4261C40.0238 42.4261 38.9653 42.2749 38.9653 43.4657C38.9653 44.6565 40.1561 44.4108 40.9689 44.4297C44.4847 44.4297 47.9815 44.4297 51.4784 44.4297C52.3987 44.3467 53.321 44.5656 54.1057 45.0534C54.5398 45.3545 54.8753 45.777 55.0703 46.2679C55.2653 46.7588 55.3111 47.2963 55.2021 47.8131C54.9374 49.0417 53.8222 48.4369 53.1039 48.4369C49.815 48.5314 48.851 49.4198 48.9077 52.7465C48.9077 54.2776 49.1534 55.8086 46.7907 55.4684C46.2804 55.4684 45.8834 55.8464 45.9212 56.4513C45.9225 56.5759 45.9505 56.6988 46.0034 56.8117C46.0563 56.9245 46.1329 57.0247 46.2279 57.1053C46.3229 57.186 46.4342 57.2453 46.5541 57.2792C46.674 57.3131 46.7998 57.3208 46.923 57.3019C48.9833 56.9805 48.9266 58.2281 48.9077 59.6835C48.9077 62.2164 49.9473 63.1993 52.518 63.2371C55.0886 63.2749 57.1679 63.1426 59.4739 63.2371C60.2726 63.322 61.0796 63.1914 61.8108 62.859C62.5421 62.5266 63.171 62.0045 63.6323 61.3469V50.3838C63.1396 49.6336 62.4329 49.0487 61.6038 48.7049C60.7747 48.3612 59.8614 48.2744 58.9824 48.4558ZM56.3929 61.2902C51.0625 61.2902 51.0625 61.2902 51.0058 55.922C50.9491 50.5539 51.0058 50.5161 56.3551 50.5161C61.7043 50.5161 61.6476 50.5161 61.6476 55.9787C61.6476 61.4414 61.572 61.2902 56.3173 61.2902H56.3929Z" fill="#4192CF"/>
<path d="M22.5588 42.4261C20.6686 42.4261 18.6272 42.4261 16.6803 42.4261C15.4517 42.4261 15.1493 42.0292 15.1304 40.8573C15.1304 36.6799 14.5633 36.1885 10.5561 36.2074C9.23298 36.2074 8.66592 35.8861 8.66592 34.4495C8.66592 32.0679 8.66592 29.6862 8.66592 27.2857C8.66592 23.2029 10.5561 21.4072 14.5822 21.3316H23.2015C23.9765 21.3316 25.0917 21.5962 25.0917 20.3109C25.0917 19.0256 23.8819 19.4036 23.0881 19.3847C21.557 19.3847 20.0071 19.3847 18.476 19.3847H14.3932C13.3918 19.2974 12.3832 19.4252 11.4352 19.7596C10.4872 20.094 9.62171 20.6273 8.89671 21.3236C8.17172 22.02 7.60402 22.8633 7.23169 23.7971C6.85936 24.7308 6.69101 25.7334 6.73793 26.7375C6.60557 29.0543 6.60557 31.3767 6.73793 33.6934C6.96475 35.8672 6.17087 36.3397 4.16727 36.1885C1.36979 36.0373 0.386895 37.1147 0.386895 39.9689C0.386895 42.4828 0.386895 45.0157 0.386895 47.5296C0.334079 47.9507 0.37395 48.3781 0.503715 48.7821C0.63348 49.1861 0.850001 49.5569 1.13811 49.8684C1.42622 50.1799 1.77896 50.4247 2.17161 50.5855C2.56426 50.7464 2.98733 50.8195 3.4112 50.7997C6.30319 50.7997 9.17627 50.7997 12.0494 50.7997C12.4578 50.827 12.8674 50.7674 13.2511 50.6246C13.6347 50.4819 13.9837 50.2593 14.275 49.9717C14.5662 49.684 14.7931 49.3378 14.9405 48.9559C15.088 48.574 15.1527 48.1652 15.1304 47.7565C15.1966 47.1281 15.1966 46.4946 15.1304 45.8663C15.1304 44.77 15.4706 44.3919 16.5858 44.4108C18.476 44.4108 20.4985 44.4108 22.4832 44.4108C23.3338 44.4108 24.5813 44.6943 24.5624 43.3334C24.5435 41.9725 23.3716 42.445 22.5588 42.4261ZM13.1079 43.6358C13.1079 48.8906 13.1079 48.8906 7.77753 48.8906C2.4472 48.8906 2.4472 48.8906 2.4472 43.6169C2.4472 42.4261 2.4472 41.2353 2.4472 40.0445C2.33379 38.5323 3.03316 38.0598 4.33739 38.1543C6.59302 38.1543 8.84234 38.1543 11.0854 38.1543C12.503 38.1543 13.1646 38.6268 12.9756 40.0445C12.7865 41.4621 13.1079 42.445 13.1079 43.6358Z" fill="#4192CF"/>
<path d="M43.5396 24.8473C42.6512 23.2406 41.7817 22.4845 39.9293 23.4107C38.7952 23.9778 35.1661 22.2199 35.185 21.0102C35.185 17.8725 33.1247 18.3639 31.1589 18.2883C29.7412 18.2883 29.0419 18.7609 29.023 20.1785C29.023 21.2748 28.3614 21.823 27.473 22.4278C25.8096 23.5242 24.2597 24.0912 22.7097 22.9193C21.5567 22.9193 20.8195 23.9778 19.761 26.1515C19.2696 27.1722 19.761 27.6826 20.4226 28.2874C20.8939 28.692 21.2722 29.1937 21.5315 29.7581C21.7909 30.3225 21.9251 30.9363 21.9251 31.5575C21.9251 32.1786 21.7909 32.7924 21.5315 33.3568C21.2722 33.9212 20.8939 34.4229 20.4226 34.8275C18.5324 36.4719 20.3281 37.5494 20.8195 38.8158C21.311 40.0822 22.1805 40.5359 23.6359 39.9121C24.1857 39.7545 24.7614 39.708 25.3294 39.7751C25.8974 39.8423 26.4463 40.0219 26.9442 40.3034C27.4421 40.5849 27.879 40.9627 28.2294 41.4147C28.5798 41.8668 28.8367 42.384 28.9851 42.9364C29.1931 45.1668 30.6296 44.94 32.1418 44.9778C33.6539 45.0156 34.8636 44.9778 35.0527 42.9175C35.3778 41.8628 36.0919 40.9712 37.0502 40.4237C38.0085 39.8761 39.1391 39.7135 40.2129 39.9688C41.8195 40.706 42.6512 40.1956 43.3506 38.7402C44.05 37.2847 45.3731 36.1128 43.3506 34.6574C42.5795 33.8927 42.1349 32.8588 42.1102 31.7732C42.0855 30.6875 42.4827 29.6345 43.2183 28.8356C44.9761 27.5314 44.3335 26.4161 43.5396 24.8473ZM41.4604 27.4557C40.8641 27.7677 40.409 28.2951 40.1878 28.9307C39.9666 29.5662 39.9958 30.2622 40.2696 30.877C40.4391 31.412 40.4391 31.9864 40.2696 32.5215C40.0481 33.0389 40.0218 33.619 40.1956 34.1543C40.3694 34.6896 40.7315 35.1437 41.2147 35.4323C41.8762 35.8671 42.4433 36.3396 41.8384 37.3225C41.2336 38.3054 40.6854 37.9652 40.0617 37.6439C39.5683 37.3729 38.9969 37.2795 38.443 37.3792C37.8891 37.479 37.3862 37.7659 37.0184 38.192C36.4657 38.6592 35.8221 39.0068 35.1283 39.2127C34.5852 39.3344 34.1006 39.6396 33.7563 40.0769C33.412 40.5142 33.229 41.0568 33.2381 41.6133C33.2381 42.3504 32.9923 43.012 32.0284 42.9364C31.0644 42.8608 30.7997 42.634 30.8186 41.859C30.8186 40.2334 29.8924 39.5152 28.4937 39.0615C27.8816 38.8552 27.3208 38.52 26.8492 38.0786C26.4829 37.6974 26.0019 37.4467 25.4796 37.3648C24.9574 37.2829 24.4227 37.3742 23.9572 37.625C23.3335 37.9274 22.6908 38.1731 22.0671 37.3036C21.4433 36.4341 21.9158 35.9994 22.5585 35.5836C23.0888 35.3007 23.4938 34.8292 23.6932 34.2622C23.8927 33.6952 23.8723 33.0741 23.6359 32.5215C23.4391 31.9068 23.4391 31.246 23.6359 30.6313C23.8829 30.0821 23.9109 29.4593 23.7142 28.8902C23.5174 28.3211 23.1108 27.8486 22.5774 27.5692C21.9536 27.1344 21.5756 26.6808 22.086 25.8302C22.5963 24.9796 23.2012 25.1686 23.8438 25.49C24.324 25.7864 24.8956 25.8981 25.4521 25.8042C26.0085 25.7103 26.5118 25.4172 26.8681 24.9796C27.3195 24.5352 27.8703 24.2048 28.4748 24.0156C29.1043 23.9314 29.6797 23.6155 30.0887 23.1296C30.4976 22.6438 30.7107 22.0228 30.6863 21.3882C30.6863 20.5566 31.1022 20.1218 32.0095 20.1596C32.9167 20.1974 33.1058 20.7078 33.1058 21.4071C33.0686 22.0042 33.2521 22.5941 33.6216 23.0646C33.991 23.5351 34.5205 23.8534 35.1094 23.9589C35.714 24.1414 36.2697 24.458 36.7349 24.8851C37.1335 25.3816 37.7021 25.7125 38.3306 25.8137C38.9592 25.915 39.6029 25.7794 40.1373 25.4332C40.2638 25.3412 40.4095 25.2788 40.5635 25.2509C40.7175 25.223 40.8758 25.2302 41.0266 25.272C41.1774 25.3138 41.3169 25.3891 41.4345 25.4923C41.5522 25.5955 41.645 25.7239 41.7061 25.868C41.8316 25.9784 41.9274 26.1184 41.9849 26.2754C42.0424 26.4323 42.0598 26.6011 42.0353 26.7665C42.0109 26.9318 41.9455 27.0884 41.8451 27.222C41.7447 27.3556 41.6124 27.4619 41.4604 27.5314V27.4557Z" fill="#4192CF"/>
<path d="M3.92137 14.7537C6.11399 14.7537 8.26881 14.7537 10.4425 14.7537C14.4308 14.7537 15.1302 14.1111 15.1302 10.1606C15.1302 8.91307 15.3003 8.13809 16.8125 8.2704C17.4551 8.36491 18.1167 8.2704 18.1167 7.32531C18.1167 6.38021 17.5496 6.34241 16.9448 6.43692C15.0546 6.72045 15.0546 5.64304 15.0546 4.31991C15.2436 2.65654 15.1302 0.974272 13.1077 0.274902H2.44703C1.77388 0.490643 1.19833 0.936747 0.821516 1.53481C0.444704 2.13287 0.290752 2.84461 0.386719 3.54493C0.386719 6.13449 0.386719 8.74295 0.386719 11.3136C0.386719 13.8843 1.52083 14.7159 3.92137 14.7537ZM2.42812 3.80956C2.42812 2.39191 2.99518 1.91937 4.31831 2.03278C6.60544 2.03278 8.93037 2.03278 11.2175 2.03278C12.7297 2.03278 13.2211 2.56203 13.1077 3.92297C13.1077 5.03818 13.1077 6.15339 13.1077 7.2875C13.1077 8.42162 13.1077 9.51793 13.1077 10.6331C13.2211 12.1264 12.7108 12.8258 11.2175 12.7691C8.98708 12.6745 6.73775 12.7691 4.50733 12.7691C3.1464 12.7691 2.42812 12.4099 2.48483 10.8789C2.52263 8.57283 2.50373 6.19119 2.42812 3.80956Z" fill="#4192CF"/>
<path d="M41.3849 55.3929C38.2472 55.3929 35.0906 55.3929 31.934 55.3929L31.7072 54.9582L33.5973 53.446C34.1644 52.9924 34.4101 52.4253 33.8998 51.8205C33.3894 51.2156 32.898 51.5369 32.4254 51.8205C30.8377 52.9735 29.231 54.1076 27.6622 55.2795C26.7738 55.96 26.7927 56.6594 27.6622 57.3209L32.5199 60.8745C33.0114 61.2147 33.5595 61.4415 34.0132 60.8745C34.4668 60.3074 34.1644 59.7215 33.6541 59.2489C33.1437 58.7764 32.1041 58.4172 31.6315 57.3587H41.3282C42.1221 57.3587 43.2184 57.5855 43.2184 56.338C43.2184 55.0905 42.1599 55.3929 41.3849 55.3929Z" fill="#4192CF"/>
<path d="M59.1716 16.8708C58.3399 16.3604 57.9808 17.1165 57.5082 17.6458C56.5442 18.7232 56.5253 21.6341 54.0492 19.6305C53.8186 19.5721 53.5747 19.5993 53.3627 19.7071C53.1507 19.8148 52.9849 19.9958 52.8962 20.2164C52.6693 20.689 52.8962 21.0103 53.2742 21.3316C55.1644 23.373 56.4686 23.2218 57.9052 20.878C58.3588 20.1408 58.7936 19.4225 59.2094 18.7043C59.6252 17.986 60.0222 17.4 59.1716 16.8708Z" fill="#4192CF"/>
<path d="M59.0773 52.86C58.9888 52.8023 58.8895 52.7633 58.7854 52.7454C58.6813 52.7275 58.5747 52.731 58.472 52.7558C58.3693 52.7805 58.2728 52.8261 58.1884 52.8895C58.1039 52.9529 58.0333 53.0329 57.9809 53.1247C57.5168 53.7215 57.0997 54.3534 56.7334 55.0148C56.2042 55.9788 55.7316 56.905 54.4085 55.8465C53.7091 55.2795 52.8963 55.6197 52.8774 56.4703C52.8774 57.6233 54.0872 57.869 54.7676 58.3605C55.4481 58.8519 56.0908 59.3056 56.6578 58.5873C57.773 57.0941 58.6992 55.4685 59.5687 54.0886C59.6175 53.8582 59.5968 53.6185 59.5094 53.3998C59.4219 53.1811 59.2715 52.9933 59.0773 52.86Z" fill="#4192CF"/>
<path d="M10.6125 40.5359C9.98876 40.1957 9.57292 40.6304 9.23268 41.1219L8.57112 42.1993C7.89065 43.22 7.49371 44.8833 5.71693 43.3901C5.3767 43.1065 4.92305 43.3901 4.60172 43.6736C4.52387 43.7461 4.46179 43.8339 4.41934 43.9315C4.37689 44.029 4.35498 44.1343 4.35498 44.2407C4.35498 44.3471 4.37689 44.4523 4.41934 44.5499C4.46179 44.6474 4.52387 44.7352 4.60172 44.8077C5.39626 45.595 6.32425 46.235 7.34249 46.6979C7.60098 46.7331 7.86401 46.6864 8.09457 46.5643C8.32513 46.4423 8.51163 46.251 8.62782 46.0174C9.4028 44.7699 10.1589 43.5035 10.9149 42.2371C11.2741 41.5377 11.3497 40.895 10.6125 40.5359Z" fill="#4192CF"/>
<path d="M32.104 25.7547C30.5456 25.7491 29.0468 26.3528 27.9273 27.437C26.8079 28.5211 26.1565 29.9998 26.1121 31.5576C26.087 33.1216 26.6843 34.6316 27.7726 35.7553C28.8608 36.879 30.3509 37.5244 31.915 37.5495C33.4791 37.5745 34.989 36.9772 36.1127 35.889C37.2364 34.8007 37.8818 33.3107 37.9069 31.7466C37.9029 30.1911 37.2961 28.6977 36.2139 27.5803C35.1318 26.4629 33.6586 25.8085 32.104 25.7547ZM31.7259 35.527C30.7474 35.3898 29.8577 34.8857 29.237 34.1169C28.6163 33.3482 28.3111 32.3722 28.3832 31.3867C28.4553 30.4013 28.8993 29.4801 29.6253 28.8099C30.3513 28.1396 31.305 27.7705 32.293 27.7772C33.2715 27.9144 34.1613 28.4184 34.782 29.1872C35.4027 29.956 35.7079 30.932 35.6358 31.9174C35.5637 32.9028 35.1196 33.824 34.3936 34.4943C33.6676 35.1645 32.714 35.5337 31.7259 35.527Z" fill="#4192CF"/>
<path d="M5.8684 9.72579C6.52996 10.1416 7.30494 11.0678 8.07992 10.3685C9.35812 8.88698 10.4208 7.23249 11.2365 5.45396C11.2223 5.23888 11.1565 5.0304 11.0446 4.84615C10.9327 4.6619 10.7781 4.50731 10.5939 4.39545C10.4041 4.29618 10.1838 4.27217 9.97703 4.32824C9.77028 4.3843 9.59231 4.51631 9.47866 4.69788C9.03081 5.29826 8.62654 5.92994 8.26894 6.58807C7.72078 7.60877 7.21043 8.38375 5.9251 7.36305C5.20683 6.79599 4.50746 7.19293 4.41295 8.04352C4.31844 8.8941 5.24463 9.29104 5.8684 9.72579Z" fill="#4192CF"/>
</g>
<defs>
<clipPath id="clip0_2_3807">
<rect width="63.2268" height="63" fill="white" transform="translate(0.386719 0.274902)"/>
</clipPath>
</defs>
</svg>
