<svg width="56" height="63" viewBox="0 0 56 63" fill="none" xmlns="http://www.w3.org/2000/svg">
<g clip-path="url(#clip0_2_3828)">
<path d="M55.6983 19.916C55.724 19.3836 55.6355 18.8519 55.4388 18.3565C55.2421 17.8611 54.9417 17.4135 54.5578 17.0437C49.5525 11.8483 44.6316 6.65281 39.6051 1.39401C39.2133 0.935959 38.7228 0.572594 38.1705 0.331183C37.6182 0.0897716 37.0184 -0.0234163 36.416 0.000112758C25.2508 0.000112758 14.0714 0.000112758 2.87799 0.000112758C0.934983 0.000112758 0.280273 0.528105 0.280273 2.57671C0.385872 12.165 0.280273 21.7534 0.280273 31.3417C0.280273 40.93 0.385872 50.6873 0.280273 60.3179C0.280273 62.4299 0.956103 63.0001 3.00471 63.0001C19.7315 63.0001 36.4583 63.0001 53.1851 63.0001C55.0014 63.0001 55.7405 62.5355 55.7194 60.5714C55.6561 47.0125 55.6772 33.4537 55.6983 19.916ZM38.8026 4.39301L52.2347 16.8959L51.8545 17.5506H40.0064C39.0982 17.5506 38.7181 17.2127 38.7181 16.2834C38.7392 12.2495 38.7392 8.17343 38.7392 4.39301H38.8026ZM51.8545 61.2472C36.0148 61.2472 20.168 61.2472 4.31413 61.2472C2.6668 61.2472 2.20216 60.7403 2.20216 59.1352C2.20216 49.9059 2.20216 40.6977 2.20216 31.4684C2.20216 22.2391 2.39224 13.2633 2.26552 4.22405C2.2444 2.45 2.62456 1.81641 4.50421 1.83752C14.5149 1.95016 24.5257 1.95016 34.5364 1.83752C36.416 1.83752 36.8173 2.45 36.7751 4.18181C36.6695 8.5747 36.7751 12.9676 36.7751 17.3605C36.7751 19.0501 37.3664 19.6625 39.056 19.6414C43.3855 19.6414 47.694 19.6414 52.0235 19.6414C53.4174 19.6414 53.9031 20.0004 53.9031 21.4366C53.9031 34.1084 53.9031 46.7168 53.9031 59.2619C53.8609 60.7614 53.3118 61.2472 51.8545 61.2472Z" fill="#4192CF"/>
<path d="M19.4359 6.65272C19.4359 5.38553 18.9713 4.87866 17.6619 4.87866C14.1279 4.87866 10.6079 4.87866 7.10205 4.87866C5.75039 4.87866 5.34912 5.42777 5.34912 6.69495C5.34912 10.2219 5.34912 13.7489 5.34912 17.2548C5.34912 18.4375 5.77151 18.9444 6.99646 18.9021C8.79163 18.9021 10.5868 18.9021 12.382 18.9021C14.1771 18.9021 15.8456 18.9021 17.5774 18.9021C19.3092 18.9021 19.4782 18.3741 19.4571 17.0014C19.3937 13.58 19.3937 10.1163 19.4359 6.65272ZM12.5087 17.107C7.24989 17.107 7.24989 17.107 7.24989 11.8693C7.24989 6.6316 7.24989 6.71607 12.382 6.71607C17.5141 6.71607 17.5563 6.71607 17.5563 12.0594C17.5563 17.4026 17.5563 17.107 12.5087 17.107Z" fill="#4192CF"/>
<path d="M15.8453 40.9511C15.8453 35.4177 16.5211 36.1781 11.0511 36.1358H10.4175C5.70781 36.1358 5.98237 35.46 6.00349 40.4865C6.00349 46.231 5.24318 45.6608 11.1567 45.6608C16.5211 45.6608 15.7819 46.2099 15.8453 40.9511ZM11.2834 43.7389C8.03098 43.7389 8.03098 43.7389 8.0521 40.6554C8.0521 38.0999 8.0521 38.0999 11.2834 38.1211C13.8178 38.1211 13.6066 38.1211 13.86 41.3946C14.0712 44.1613 12.4239 43.7811 11.2834 43.7389Z" fill="#4192CF"/>
<path d="M15.8243 53.3906C15.8243 48.1529 15.8243 48.1318 10.6289 48.1529C5.43343 48.174 6.00366 47.5827 6.02478 52.7992C6.02478 58.2903 5.32783 57.7201 10.9457 57.7623C16.5635 57.8046 15.8243 58.3326 15.8243 53.3906ZM10.8401 55.6715C7.58764 55.6715 7.98891 55.9672 7.98891 52.7781C7.98891 49.589 7.65099 50.0748 11.0513 50.0537C13.7968 50.0537 13.7968 50.0537 13.7968 53.0526C13.7968 55.6715 13.7968 55.6715 10.8401 55.6715Z" fill="#4192CF"/>
<path d="M33.5647 55.6505H45.2228C46.0042 55.6505 46.9968 55.5449 47.0391 56.6431C47.0813 57.7413 46.0676 57.6991 45.2861 57.6991H21.5687C20.7873 57.6991 19.7524 57.6991 19.7524 56.7064C19.7524 55.7138 20.8929 55.6716 21.7166 55.6505H33.5647Z" fill="#4192CF"/>
<path d="M15.8245 29.5678C15.8245 24.2667 15.8245 24.2667 10.439 24.2667C5.53922 24.2667 6.02497 23.7387 6.00385 28.6174C5.98273 33.496 6.00385 33.6439 10.9881 33.6439C16.3525 33.5383 15.8034 34.4253 15.8245 29.5678ZM11.2204 31.8064C8.03134 31.8064 8.03134 31.8064 8.05246 28.8919C8.07358 25.9774 7.75679 26.2308 11.0726 26.2097C13.797 26.2097 13.6069 26.2097 13.8604 29.2087C14.0504 31.6797 12.9522 32.1655 11.2204 31.8064Z" fill="#4192CF"/>
<path d="M33.5651 45.6819H21.6747C20.9144 45.6819 19.8584 45.872 19.774 44.7949C19.6895 43.7178 20.83 43.6333 21.6536 43.6333H45.012C45.8357 43.6333 46.9972 43.4854 47.0184 44.7104C47.0395 45.9353 45.8145 45.6819 45.012 45.6819C41.1893 45.703 37.3667 45.6819 33.5651 45.6819Z" fill="#4192CF"/>
<path d="M33.3326 31.8064H45.2019C45.92 31.8064 47.0393 31.5529 46.9971 32.7567C46.9548 33.9606 45.8566 33.6015 45.1174 33.6227H21.8858C21.1043 33.6227 19.7738 33.9606 19.9005 32.6934C20.0272 31.4262 21.2099 31.8486 22.0125 31.8486C25.624 31.6796 29.51 31.8064 33.3326 31.8064Z" fill="#4192CF"/>
<path d="M29.8476 42.8943C29.5454 42.9102 29.2468 42.8226 29.0011 42.646C28.7554 42.4694 28.5772 42.2143 28.4959 41.9228C28.0736 40.7612 27.63 39.6418 27.2499 38.4802C27.0598 37.91 26.9753 37.2764 27.6723 37.0019C28.3692 36.7273 28.8339 37.2342 29.0873 37.8678C29.2592 38.2647 29.4005 38.6742 29.5097 39.0927C29.8054 40.1909 30.3334 40.2543 31.1781 39.5785C32.8888 38.269 34.6207 37.0019 36.3525 35.7347C36.9649 35.2912 37.6619 34.8265 38.2321 35.7347C38.8023 36.6428 38.0632 36.9385 37.5563 37.3187C35.2331 39.0927 32.8677 40.8456 30.5023 42.5986C30.2906 42.7109 30.0719 42.8097 29.8476 42.8943Z" fill="#4192CF"/>
<path d="M29.5731 54.6578C29.3457 54.6442 29.1271 54.5652 28.9435 54.4304C28.7599 54.2955 28.6192 54.1105 28.5383 53.8975C28.0525 52.6303 27.5668 51.3632 27.1444 50.0537C27.0893 49.938 27.0588 49.8121 27.0547 49.684C27.0506 49.5559 27.0731 49.4283 27.1207 49.3093C27.1683 49.1903 27.24 49.0824 27.3313 48.9924C27.4226 48.9025 27.5315 48.8324 27.6512 48.7866C28.3271 48.5331 28.665 48.9766 28.9818 49.5469C30.3546 51.9967 30.3757 51.9756 32.6355 50.2227L36.606 47.2448C36.7031 47.1364 36.8219 47.0498 36.9547 46.9904C37.0875 46.9311 37.2314 46.9004 37.3769 46.9004C37.5223 46.9004 37.6662 46.9311 37.799 46.9904C37.9318 47.0498 38.0507 47.1364 38.1477 47.2448C38.2295 47.3419 38.2889 47.4557 38.3217 47.5782C38.3546 47.7007 38.3602 47.829 38.338 47.9539C38.3159 48.0788 38.2665 48.1973 38.1935 48.3011C38.1205 48.4048 38.0255 48.4912 37.9154 48.5542C35.3177 50.5184 32.72 52.4403 30.1222 54.3621C29.9586 54.4931 29.7726 54.5933 29.5731 54.6578Z" fill="#4192CF"/>
<path d="M27.7359 24.7735C28.7285 24.7735 28.9819 25.4282 29.1087 26.0407C29.5522 28.3428 30.5448 27.9204 31.9176 26.7588C33.2904 25.5972 34.8955 24.5412 36.4161 23.443C36.9652 23.0417 37.6199 22.7249 38.1056 23.443C38.5914 24.1611 38.1056 24.6679 37.5143 25.0481L30.4603 30.328C30.2987 30.4713 30.1047 30.5731 29.8949 30.6246C29.6852 30.6761 29.4661 30.6758 29.2565 30.6237C27.9085 29.1697 27.1549 27.2631 27.1445 25.2804C27.3128 25.0805 27.5126 24.9093 27.7359 24.7735Z" fill="#4192CF"/>
<path d="M27.736 7.94117C26.4477 7.94117 25.1594 7.94117 23.8711 7.94117C23.2375 7.94117 22.7095 7.66661 22.7306 6.94854C22.7325 6.80307 22.765 6.65963 22.826 6.52758C22.8871 6.39553 22.9753 6.27783 23.0849 6.18217C23.1945 6.08651 23.3231 6.01504 23.4622 5.97242C23.6013 5.92979 23.7478 5.91697 23.8922 5.9348C26.6096 5.9348 29.334 5.9348 32.0655 5.9348C32.7624 5.9348 33.3538 6.27271 33.3116 7.07526C33.2693 7.87781 32.6357 7.94117 32.0233 7.96229H27.736V7.94117Z" fill="#4192CF"/>
<path d="M28.3272 15.8611H32.1921C32.3358 15.8435 32.4816 15.8557 32.6205 15.8968C32.7593 15.938 32.8882 16.0073 32.9991 16.1004C33.11 16.1935 33.2006 16.3084 33.2653 16.438C33.3299 16.5676 33.3672 16.7091 33.3748 16.8537C33.3748 17.5507 32.8679 17.8674 32.2343 17.8674C29.4465 17.8674 26.6587 17.8674 23.7864 17.8674C23.174 17.8674 22.6671 17.5507 22.7305 16.7903C22.7938 16.03 23.3218 15.8822 23.9554 15.8611H28.3272Z" fill="#4192CF"/>
<path d="M27.9892 12.8408H23.9131C23.3851 12.8408 22.8782 12.7141 22.8149 12.0594C22.7515 11.4047 23.2161 11.0034 23.8708 11.0034C26.6586 11.0034 29.4464 11.0034 32.3187 11.0034C32.9312 11.0034 33.4803 11.278 33.4169 12.0172C33.3536 12.7564 32.7622 12.8831 32.1498 12.8831H27.9892V12.8408Z" fill="#4192CF"/>
</g>
<defs>
<clipPath id="clip0_2_3828">
<rect width="55.4392" height="63" fill="white" transform="translate(0.280273)"/>
</clipPath>
</defs>
</svg>
