<svg width="70" height="64" viewBox="0 0 70 64" fill="none" xmlns="http://www.w3.org/2000/svg">
<g clip-path="url(#clip0_2_3767)">
<path d="M54.0802 61.2929C52.3205 61.2929 52.4023 60.0653 52.4842 58.8785C52.6069 57.1598 51.809 56.5459 50.1311 56.5664C40.0506 56.5664 29.9564 56.5664 19.8486 56.5664C18.1503 56.5664 17.4137 57.1598 17.4751 58.8785C17.4751 59.697 17.9457 60.9246 16.6157 61.1088C15.6336 61.2725 15.0197 61.5589 15.2244 62.6638C15.429 63.7687 16.4725 63.5437 17.2705 63.5437C23.1428 63.5437 29.0152 63.5437 34.8876 63.5437H53.3026C53.9574 63.5437 54.694 63.5437 54.8372 62.6843C54.9804 61.8249 54.7758 61.3134 54.0802 61.2929ZM21.0967 61.2929C20.176 61.2929 19.6849 60.986 19.7054 60.0244C19.7258 59.0627 20.135 58.8581 20.933 58.8581C21.731 58.8581 22.2221 59.1241 22.2016 60.0039C22.1812 60.8837 21.9765 61.2111 21.0967 61.2316V61.2929ZM25.4754 61.2929C24.5342 61.2929 24.5342 60.5768 24.5547 59.9016C24.5751 59.2264 24.9843 58.9194 25.6596 58.9399C26.3348 58.9604 26.8054 59.431 26.744 60.0857C26.744 60.9656 26.2325 61.2316 25.4754 61.1906V61.2929ZM39.3686 61.2929H30.427C29.5063 61.2929 29.0561 60.9246 29.097 59.963C29.138 59.0013 29.7313 58.9194 30.4475 58.9194H39.389C40.2075 58.9194 40.9031 59.0627 40.8827 60.1062C40.8622 61.1497 40.187 61.2111 39.3686 61.2111V61.2929ZM44.4634 61.2929C43.4813 61.2929 43.0925 60.9451 43.0516 60.1267C43.0106 59.3082 43.5017 58.8171 44.4225 58.8581C45.3432 58.899 45.5069 59.3696 45.5069 60.1471C45.5069 60.9246 45.0568 61.2929 44.4634 61.2316V61.2929ZM48.883 61.2929C48.0236 61.2929 47.7167 60.8223 47.6963 60.0448C47.6758 59.2673 48.1464 58.8785 48.9649 58.899C49.7833 58.9194 50.1721 59.3082 50.1107 60.0448C50.0493 60.7814 49.681 61.2111 48.883 61.2111V61.2929Z" fill="#4192CF"/>
<path d="M68.5049 58.0804C64.7605 54.3974 60.9548 54.4383 57.2717 58.0804C56.4533 58.8989 55.6348 59.6559 56.3101 61.0473C56.9853 62.4387 57.5991 63.7277 59.5225 63.5026C60.5921 63.431 61.6653 63.431 62.7349 63.5026C63.8935 63.441 65.0546 63.441 66.2133 63.5026C68.0548 63.6868 68.8119 62.6433 69.528 61.1905C70.2441 59.7378 69.4052 58.9603 68.5049 58.0804ZM67.0522 60.5972C66.868 61.1496 66.3156 61.1701 65.8041 61.1905H62.8372C62.347 61.2314 61.8542 61.2314 61.364 61.1905C60.5251 61.0678 59.3179 61.7021 58.9496 60.5972C58.5813 59.4923 59.8294 58.9398 60.6274 58.4283C61.5417 57.8476 62.638 57.6247 63.7065 57.8021C64.7749 57.9796 65.7404 58.5449 66.4179 59.3899C66.7453 59.7378 67.2363 60.0652 67.0522 60.5972Z" fill="#4192CF"/>
<path d="M15.1218 13.4955C15.1254 13.6406 15.0981 13.7849 15.0417 13.9186C14.9853 14.0524 14.9011 14.1726 14.7947 14.2713C14.6882 14.37 14.562 14.4449 14.4244 14.4911C14.2867 14.5372 14.1408 14.5536 13.9964 14.539C13.854 14.5473 13.7113 14.5274 13.5765 14.4805C13.4417 14.4335 13.3176 14.3604 13.2111 14.2653C13.1047 14.1703 13.018 14.0552 12.9562 13.9266C12.8943 13.798 12.8584 13.6585 12.8506 13.516C12.8506 12.8817 13.2189 12.3701 13.8736 12.3292C14.0376 12.2947 14.2075 12.3002 14.3689 12.3453C14.5303 12.3903 14.6784 12.4736 14.8009 12.5879C14.9233 12.7023 15.0164 12.8445 15.0722 13.0025C15.1281 13.1605 15.1451 13.3296 15.1218 13.4955Z" fill="#4192CF"/>
<path d="M16.4112 13.6388C16.3937 13.491 16.4055 13.3412 16.4459 13.198C16.4863 13.0548 16.5546 12.9209 16.6467 12.804C16.7389 12.6872 16.8531 12.5896 16.983 12.5169C17.1128 12.4443 17.2557 12.3979 17.4035 12.3804C17.5513 12.3629 17.7011 12.3747 17.8443 12.4152C17.9875 12.4556 18.1214 12.5238 18.2382 12.616C18.3551 12.7081 18.4526 12.8224 18.5253 12.9522C18.598 13.0821 18.6444 13.225 18.6619 13.3728C18.6858 13.5174 18.6778 13.6656 18.6382 13.8068C18.5987 13.9481 18.5286 14.0789 18.433 14.1901C18.3374 14.3013 18.2186 14.3902 18.0849 14.4505C17.9512 14.5108 17.8059 14.541 17.6593 14.539C17.5176 14.5684 17.3713 14.568 17.2297 14.5378C17.0882 14.5075 16.9545 14.4482 16.8371 14.3636C16.7197 14.2789 16.6212 14.1707 16.5479 14.0459C16.4746 13.9212 16.428 13.7825 16.4112 13.6388Z" fill="#4192CF"/>
<path d="M19.9098 13.5978C19.8745 13.4398 19.8766 13.2758 19.9157 13.1186C19.9548 12.9615 20.0299 12.8157 20.1351 12.6926C20.2403 12.5695 20.3727 12.4726 20.5218 12.4096C20.6709 12.3465 20.8327 12.319 20.9942 12.3292C21.2588 12.3655 21.5013 12.4963 21.6769 12.6976C21.8524 12.8988 21.9491 13.1569 21.9491 13.4239C21.9491 13.691 21.8524 13.949 21.6769 14.1502C21.5013 14.3515 21.2588 14.4823 20.9942 14.5186C20.8619 14.5327 20.7282 14.5197 20.6011 14.4805C20.4739 14.4413 20.3561 14.3767 20.2547 14.2906C20.1533 14.2045 20.0704 14.0987 20.0111 13.9796C19.9518 13.8605 19.9174 13.7306 19.9098 13.5978Z" fill="#4192CF"/>
<path d="M15.1628 26.2019C15.1628 25.1175 15.8789 24.9538 16.6564 25.0766C20.2576 25.6699 23.2449 23.9717 26.3346 22.5803C31.8182 20.0636 37.3632 17.6287 42.7035 15.0301C44.8122 13.8198 47.2359 13.2709 49.6603 13.4546H53.3229C54.1822 13.4546 54.7552 13.6797 54.7347 14.7027C54.7142 15.7258 54.1822 15.8281 53.4252 15.8281H53.241C47.2459 14.7846 42.3557 17.8742 37.2608 20.1454C32.8003 22.1915 28.3193 24.0944 23.9406 26.2838C21.6753 27.2964 19.1905 27.7188 16.7178 27.5114C15.8584 27.4705 15.1218 27.4091 15.1628 26.2019Z" fill="#4192CF"/>
<path d="M55.1645 36.8827C53.323 36.8827 53.5685 35.5732 53.5685 34.4478C53.5685 29.8031 53.5685 25.1585 53.5685 20.5342C53.5685 18.6927 52.9138 17.9152 51.0927 18.0993C50.5152 18.171 49.931 18.171 49.3535 18.0993C47.1233 17.8129 46.489 18.8564 46.5299 20.9639C46.6526 25.6904 46.5299 30.3965 46.5299 35.1231C46.5299 36.0029 46.5299 36.8623 45.2817 36.7804C44.0336 36.6986 44.2792 35.8801 44.2792 35.164V26.9795C44.2792 22.7645 44.2792 22.8873 40.0232 22.7645C37.9771 22.7645 37.1791 23.3169 37.2814 25.4245C37.4247 28.7392 37.2814 32.0539 37.2814 35.3686C37.2814 36.228 37.0359 36.8009 36.0333 36.8213C35.0307 36.8418 34.867 36.1666 34.8875 35.3686V30.8671C34.8875 26.0383 34.8875 26.0792 30.0995 26.2429C28.524 26.2429 27.8284 26.7954 27.8897 28.4322C27.992 30.4157 27.992 32.403 27.8897 34.3865C27.8897 35.2867 28.565 36.8009 26.703 36.7804C24.841 36.7599 25.7004 35.2663 25.5162 34.366C25.4855 34.0325 25.4855 33.6969 25.5162 33.3634C25.5162 29.7418 25.5162 29.7418 21.9969 29.7418C18.4776 29.7418 18.5594 29.7418 18.5594 33.1792C18.5594 33.834 18.5594 34.5092 18.5594 35.2254C18.5594 36.3303 18.273 36.9441 17.0453 36.9032C16.2064 36.9032 14.9992 36.5758 15.122 38.0695C15.2447 39.5631 16.4519 39.0311 17.1681 39.0311C23.3064 39.0311 29.2606 39.0311 35.3171 39.0311H54.1824C54.7962 39.0311 55.6146 39.2358 55.7374 38.2536C55.9829 37.5989 55.9216 36.8827 55.1645 36.8827ZM22.0583 36.7804C20.3396 36.6167 21.158 35.1231 21.1171 34.2023C21.0762 33.2815 20.5032 31.9311 22.222 32.1562C23.9407 32.3813 22.9791 33.8135 23.3064 34.6729C23.1223 35.4914 23.7157 36.9236 22.0583 36.7804ZM32.5958 35.7164C32.6178 35.8595 32.6072 36.0057 32.5648 36.1441C32.5224 36.2825 32.4493 36.4096 32.3509 36.5158C32.2526 36.622 32.1315 36.7046 31.9968 36.7575C31.862 36.8104 31.7171 36.8323 31.5728 36.8213C31.43 36.8462 31.2834 36.8386 31.144 36.7988C31.0046 36.7591 30.876 36.6884 30.7678 36.592C30.6595 36.4956 30.5745 36.376 30.519 36.2421C30.4636 36.1081 30.4391 35.9634 30.4474 35.8187C30.4474 33.7726 30.4474 31.7265 30.4474 29.6804C30.4474 29.0052 30.7338 28.6164 31.4704 28.5959C32.207 28.5755 32.6163 29.0461 32.5958 29.8236V35.7164ZM41.9875 30.9694V35.6755C41.9875 36.3098 41.8033 36.8009 41.0258 36.8213C40.2483 36.8418 39.6754 36.5963 39.6549 35.7574C39.6549 32.5449 39.6549 29.3325 39.6549 26.0997C39.6549 25.404 40.0846 25.0766 40.7598 25.0561C41.435 25.0357 41.9875 25.4244 41.9875 26.2429C41.9739 27.8252 41.9739 29.4007 41.9875 30.9694ZM51.3587 35.389C51.3587 36.2484 51.0927 36.8418 50.1106 36.8623C49.1285 36.8827 48.9648 36.1666 48.9648 35.3481V22.0074C48.9648 21.2504 48.9648 20.4524 50.0287 20.4115C51.0927 20.3705 51.3587 21.1276 51.3587 22.0484C51.3451 26.4953 51.3451 30.9422 51.3587 35.389Z" fill="#4192CF"/>
<path d="M69.9374 3.53093C69.9579 1.15743 69.119 0.60498 66.8887 0.60498C56.2898 0.60498 45.6909 0.60498 35.092 0.60498C24.4931 0.60498 13.5668 0.60498 2.80425 0.60498C0.758134 0.60498 0.0419922 1.21882 0.0419922 3.30586C0.123837 16.2919 0.123837 29.2916 0.0419922 42.3049C0.0419922 44.4533 0.819517 44.9444 2.80425 44.9035C8.8403 44.9035 14.8968 44.9035 20.9329 44.9035C25.7617 44.9035 25.7617 44.9035 25.6389 49.8551C25.6389 50.8372 25.8435 51.9012 24.268 51.9012C23.3677 51.9012 23.245 52.6173 23.3268 53.3335C23.4087 54.0496 23.9202 54.2542 24.575 54.2542H45.1998C45.916 54.2542 46.5298 54.1314 46.5707 53.2107C46.6117 52.2899 46.3661 51.8807 45.5067 51.8807C44.6474 51.8807 44.3609 51.1646 44.3609 50.3666C44.3609 49.5686 44.3609 48.1977 44.3609 47.1337C44.1768 45.415 44.8111 44.8421 46.5707 44.883C53.3638 44.883 60.157 44.883 67.0319 44.883C69.2213 44.883 70.0806 44.4124 70.0602 42.0184C69.8351 29.2506 69.8556 16.3601 69.9374 3.53093ZM36.9744 51.7579H33.005C27.6441 51.7579 27.7055 51.7579 27.992 46.4176C27.992 45.0467 28.5853 44.7807 29.7926 44.7807C33.271 44.7807 36.7289 44.7807 40.2073 44.7807C41.4145 44.7807 41.9465 45.0671 42.0079 46.4176C42.2943 51.7579 42.3557 51.7579 36.9744 51.7579ZM57.4356 42.4481C49.9877 42.4481 42.5399 42.4481 35.092 42.4481C27.6441 42.4481 20.1963 42.4481 12.7484 42.4481C11.1729 42.4481 10.7023 42.0389 10.7023 40.402C10.7023 31.0581 10.7023 21.7141 10.7023 12.3702C10.7023 10.5082 11.357 9.93528 13.1576 9.93528C27.8078 9.93528 42.458 9.93528 57.1082 9.93528C58.8679 9.93528 59.625 10.4877 59.6045 12.3702C59.6045 21.7005 59.6045 31.0444 59.6045 40.402C59.3794 42.0798 58.9497 42.5095 57.3333 42.5095L57.4356 42.4481ZM64.6584 42.4481C62.8783 42.4481 61.8143 42.4481 61.8552 40.0337C62.0189 30.9285 61.8552 21.8232 61.8552 12.718C61.8552 8.62577 60.7708 7.54132 56.7195 7.54132H13.1781C9.16768 7.60271 8.22647 8.58484 8.22647 12.5748C8.22647 21.7618 8.22647 30.9898 8.22647 40.1565C8.22647 42.6323 7.03972 42.53 5.34144 42.489C3.64316 42.4481 2.19042 42.8369 2.23134 40.1155C2.39503 28.514 2.23134 16.933 2.23134 5.33151C2.23134 3.40816 2.84517 2.97848 4.64576 2.99894C14.7536 2.99894 24.8614 2.99894 34.9692 2.99894C45.0771 2.99894 55.0212 2.99894 65.0472 2.99894C67.0933 2.99894 67.5639 3.59231 67.5639 5.53613C67.5639 16.9739 67.5639 28.555 67.5639 40.0541C67.6662 42.7141 66.2749 42.4481 64.5561 42.5095L64.6584 42.4481Z" fill="#4192CF"/>
<path d="M15.1218 13.4955C15.1254 13.6406 15.0981 13.7849 15.0417 13.9186C14.9853 14.0524 14.9011 14.1726 14.7947 14.2713C14.6882 14.37 14.562 14.4449 14.4244 14.4911C14.2867 14.5372 14.1408 14.5536 13.9964 14.539C13.854 14.5473 13.7113 14.5274 13.5765 14.4805C13.4417 14.4335 13.3176 14.3604 13.2111 14.2653C13.1047 14.1703 13.018 14.0552 12.9562 13.9266C12.8943 13.798 12.8584 13.6585 12.8506 13.516C12.8506 12.8817 13.2189 12.3701 13.8736 12.3292C14.0376 12.2947 14.2075 12.3002 14.3689 12.3453C14.5303 12.3903 14.6784 12.4736 14.8009 12.5879C14.9233 12.7023 15.0164 12.8445 15.0722 13.0025C15.1281 13.1605 15.1451 13.3296 15.1218 13.4955Z" fill="#4192CF"/>
<path d="M16.4112 13.6388C16.3937 13.491 16.4055 13.3412 16.4459 13.198C16.4863 13.0548 16.5546 12.9209 16.6467 12.804C16.7389 12.6872 16.8531 12.5896 16.983 12.5169C17.1128 12.4443 17.2557 12.3979 17.4035 12.3804C17.5513 12.3629 17.7011 12.3747 17.8443 12.4152C17.9875 12.4556 18.1214 12.5238 18.2382 12.616C18.3551 12.7081 18.4526 12.8224 18.5253 12.9522C18.598 13.0821 18.6444 13.225 18.6619 13.3728C18.6858 13.5174 18.6778 13.6656 18.6382 13.8068C18.5987 13.9481 18.5286 14.0789 18.433 14.1901C18.3374 14.3013 18.2186 14.3902 18.0849 14.4505C17.9512 14.5108 17.8059 14.541 17.6593 14.539C17.5176 14.5684 17.3713 14.568 17.2297 14.5378C17.0882 14.5075 16.9545 14.4482 16.8371 14.3636C16.7197 14.2789 16.6212 14.1707 16.5479 14.0459C16.4746 13.9212 16.428 13.7825 16.4112 13.6388Z" fill="#4192CF"/>
<path d="M19.9098 13.5978C19.8745 13.4398 19.8766 13.2758 19.9157 13.1186C19.9548 12.9615 20.0299 12.8157 20.1351 12.6926C20.2403 12.5695 20.3727 12.4726 20.5218 12.4096C20.6709 12.3465 20.8327 12.319 20.9942 12.3292C21.2588 12.3655 21.5013 12.4963 21.6769 12.6976C21.8524 12.8988 21.9491 13.1569 21.9491 13.4239C21.9491 13.691 21.8524 13.949 21.6769 14.1502C21.5013 14.3515 21.2588 14.4823 20.9942 14.5186C20.8619 14.5327 20.7282 14.5197 20.6011 14.4805C20.4739 14.4413 20.3561 14.3767 20.2547 14.2906C20.1533 14.2045 20.0704 14.0987 20.0111 13.9796C19.9518 13.8605 19.9174 13.7306 19.9098 13.5978Z" fill="#4192CF"/>
<path d="M15.1628 26.2019C15.1628 25.1175 15.8789 24.9538 16.6564 25.0766C20.2576 25.6699 23.2449 23.9717 26.3346 22.5803C31.8182 20.0636 37.3632 17.6287 42.7035 15.0301C44.8122 13.8198 47.2359 13.2709 49.6603 13.4546H53.3229C54.1822 13.4546 54.7552 13.6797 54.7347 14.7027C54.7142 15.7258 54.1822 15.8281 53.4252 15.8281H53.241C47.2459 14.7846 42.3557 17.8742 37.2608 20.1454C32.8003 22.1915 28.3193 24.0944 23.9406 26.2838C21.6753 27.2964 19.1905 27.7188 16.7178 27.5114C15.8584 27.4705 15.1218 27.4091 15.1628 26.2019Z" fill="#4192CF"/>
<path d="M55.1645 36.8827C53.323 36.8827 53.5685 35.5732 53.5685 34.4478C53.5685 29.8031 53.5685 25.1585 53.5685 20.5342C53.5685 18.6927 52.9138 17.9152 51.0927 18.0993C50.5152 18.171 49.931 18.171 49.3535 18.0993C47.1233 17.8129 46.489 18.8564 46.5299 20.9639C46.6526 25.6904 46.5299 30.3965 46.5299 35.1231C46.5299 36.0029 46.5299 36.8623 45.2817 36.7804C44.0336 36.6986 44.2792 35.8801 44.2792 35.164V26.9795C44.2792 22.7645 44.2792 22.8873 40.0232 22.7645C37.9771 22.7645 37.1791 23.3169 37.2814 25.4245C37.4247 28.7392 37.2814 32.0539 37.2814 35.3686C37.2814 36.228 37.0359 36.8009 36.0333 36.8213C35.0307 36.8418 34.867 36.1666 34.8875 35.3686V30.8671C34.8875 26.0383 34.8875 26.0792 30.0995 26.2429C28.524 26.2429 27.8284 26.7954 27.8897 28.4322C27.992 30.4157 27.992 32.403 27.8897 34.3865C27.8897 35.2867 28.565 36.8009 26.703 36.7804C24.841 36.7599 25.7004 35.2663 25.5162 34.366C25.4855 34.0325 25.4855 33.6969 25.5162 33.3634C25.5162 29.7418 25.5162 29.7418 21.9969 29.7418C18.4776 29.7418 18.5594 29.7418 18.5594 33.1792C18.5594 33.834 18.5594 34.5092 18.5594 35.2254C18.5594 36.3303 18.273 36.9441 17.0453 36.9032C16.2064 36.9032 14.9992 36.5758 15.122 38.0695C15.2447 39.5631 16.4519 39.0311 17.1681 39.0311C23.3064 39.0311 29.2606 39.0311 35.3171 39.0311H54.1824C54.7962 39.0311 55.6146 39.2358 55.7374 38.2536C55.9829 37.5989 55.9216 36.8827 55.1645 36.8827ZM22.0583 36.7804C20.3396 36.6167 21.158 35.1231 21.1171 34.2023C21.0762 33.2815 20.5032 31.9311 22.222 32.1562C23.9407 32.3813 22.9791 33.8135 23.3064 34.6729C23.1223 35.4914 23.7157 36.9236 22.0583 36.7804ZM32.5958 35.7164C32.6178 35.8595 32.6072 36.0057 32.5648 36.1441C32.5224 36.2825 32.4493 36.4096 32.3509 36.5158C32.2526 36.622 32.1315 36.7046 31.9968 36.7575C31.862 36.8104 31.7171 36.8323 31.5728 36.8213C31.43 36.8462 31.2834 36.8386 31.144 36.7988C31.0046 36.7591 30.876 36.6884 30.7678 36.592C30.6595 36.4956 30.5745 36.376 30.519 36.2421C30.4636 36.1081 30.4391 35.9634 30.4474 35.8187C30.4474 33.7726 30.4474 31.7265 30.4474 29.6804C30.4474 29.0052 30.7338 28.6164 31.4704 28.5959C32.207 28.5755 32.6163 29.0461 32.5958 29.8236V35.7164ZM41.9875 30.9694V35.6755C41.9875 36.3098 41.8033 36.8009 41.0258 36.8213C40.2483 36.8418 39.6754 36.5963 39.6549 35.7574C39.6549 32.5449 39.6549 29.3325 39.6549 26.0997C39.6549 25.404 40.0846 25.0766 40.7598 25.0561C41.435 25.0357 41.9875 25.4244 41.9875 26.2429C41.9739 27.8252 41.9739 29.4007 41.9875 30.9694ZM51.3587 35.389C51.3587 36.2484 51.0927 36.8418 50.1106 36.8623C49.1285 36.8827 48.9648 36.1666 48.9648 35.3481V22.0074C48.9648 21.2504 48.9648 20.4524 50.0287 20.4115C51.0927 20.3705 51.3587 21.1276 51.3587 22.0484C51.3451 26.4953 51.3451 30.9422 51.3587 35.389Z" fill="#4192CF"/>
<path d="M69.9374 3.53093C69.9579 1.15743 69.119 0.60498 66.8887 0.60498C56.2898 0.60498 45.6909 0.60498 35.092 0.60498C24.4931 0.60498 13.5668 0.60498 2.80425 0.60498C0.758134 0.60498 0.0419922 1.21882 0.0419922 3.30586C0.123837 16.2919 0.123837 29.2916 0.0419922 42.3049C0.0419922 44.4533 0.819517 44.9444 2.80425 44.9035C8.8403 44.9035 14.8968 44.9035 20.9329 44.9035C25.7617 44.9035 25.7617 44.9035 25.6389 49.8551C25.6389 50.8372 25.8435 51.9012 24.268 51.9012C23.3677 51.9012 23.245 52.6173 23.3268 53.3335C23.4087 54.0496 23.9202 54.2542 24.575 54.2542H45.1998C45.916 54.2542 46.5298 54.1314 46.5707 53.2107C46.6117 52.2899 46.3661 51.8807 45.5067 51.8807C44.6474 51.8807 44.3609 51.1646 44.3609 50.3666C44.3609 49.5686 44.3609 48.1977 44.3609 47.1337C44.1768 45.415 44.8111 44.8421 46.5707 44.883C53.3638 44.883 60.157 44.883 67.0319 44.883C69.2213 44.883 70.0806 44.4124 70.0602 42.0184C69.8351 29.2506 69.8556 16.3601 69.9374 3.53093ZM36.9744 51.7579H33.005C27.6441 51.7579 27.7055 51.7579 27.992 46.4176C27.992 45.0467 28.5853 44.7807 29.7926 44.7807C33.271 44.7807 36.7289 44.7807 40.2073 44.7807C41.4145 44.7807 41.9465 45.0671 42.0079 46.4176C42.2943 51.7579 42.3557 51.7579 36.9744 51.7579ZM57.4356 42.4481C49.9877 42.4481 42.5399 42.4481 35.092 42.4481C27.6441 42.4481 20.1963 42.4481 12.7484 42.4481C11.1729 42.4481 10.7023 42.0389 10.7023 40.402C10.7023 31.0581 10.7023 21.7141 10.7023 12.3702C10.7023 10.5082 11.357 9.93528 13.1576 9.93528C27.8078 9.93528 42.458 9.93528 57.1082 9.93528C58.8679 9.93528 59.625 10.4877 59.6045 12.3702C59.6045 21.7005 59.6045 31.0444 59.6045 40.402C59.3794 42.0798 58.9497 42.5095 57.3333 42.5095L57.4356 42.4481ZM64.6584 42.4481C62.8783 42.4481 61.8143 42.4481 61.8552 40.0337C62.0189 30.9285 61.8552 21.8232 61.8552 12.718C61.8552 8.62577 60.7708 7.54132 56.7195 7.54132H13.1781C9.16768 7.60271 8.22647 8.58484 8.22647 12.5748C8.22647 21.7618 8.22647 30.9898 8.22647 40.1565C8.22647 42.6323 7.03972 42.53 5.34144 42.489C3.64316 42.4481 2.19042 42.8369 2.23134 40.1155C2.39503 28.514 2.23134 16.933 2.23134 5.33151C2.23134 3.40816 2.84517 2.97848 4.64576 2.99894C14.7536 2.99894 24.8614 2.99894 34.9692 2.99894C45.0771 2.99894 55.0212 2.99894 65.0472 2.99894C67.0933 2.99894 67.5639 3.59231 67.5639 5.53613C67.5639 16.9739 67.5639 28.555 67.5639 40.0541C67.6662 42.7141 66.2749 42.4481 64.5561 42.5095L64.6584 42.4481Z" fill="#4192CF"/>
<path d="M54.0802 61.2929C52.3205 61.2929 52.4023 60.0653 52.4842 58.8785C52.6069 57.1598 51.809 56.5459 50.1311 56.5664C40.0506 56.5664 29.9564 56.5664 19.8486 56.5664C18.1503 56.5664 17.4137 57.1598 17.4751 58.8785C17.4751 59.697 17.9457 60.9246 16.6157 61.1088C15.6336 61.2725 15.0197 61.5589 15.2244 62.6638C15.429 63.7687 16.4725 63.5437 17.2705 63.5437C23.1428 63.5437 29.0152 63.5437 34.8876 63.5437H53.3026C53.9574 63.5437 54.694 63.5437 54.8372 62.6843C54.9804 61.8249 54.7758 61.3134 54.0802 61.2929ZM21.0967 61.2929C20.176 61.2929 19.6849 60.986 19.7054 60.0244C19.7258 59.0627 20.135 58.8581 20.933 58.8581C21.731 58.8581 22.2221 59.1241 22.2016 60.0039C22.1812 60.8837 21.9765 61.2111 21.0967 61.2316V61.2929ZM25.4754 61.2929C24.5342 61.2929 24.5342 60.5768 24.5547 59.9016C24.5751 59.2264 24.9843 58.9194 25.6596 58.9399C26.3348 58.9604 26.8054 59.431 26.744 60.0857C26.744 60.9656 26.2325 61.2316 25.4754 61.1906V61.2929ZM39.3686 61.2929H30.427C29.5063 61.2929 29.0561 60.9246 29.097 59.963C29.138 59.0013 29.7313 58.9194 30.4475 58.9194H39.389C40.2075 58.9194 40.9031 59.0627 40.8827 60.1062C40.8622 61.1497 40.187 61.2111 39.3686 61.2111V61.2929ZM44.4634 61.2929C43.4813 61.2929 43.0925 60.9451 43.0516 60.1267C43.0106 59.3082 43.5017 58.8171 44.4225 58.8581C45.3432 58.899 45.5069 59.3696 45.5069 60.1471C45.5069 60.9246 45.0568 61.2929 44.4634 61.2316V61.2929ZM48.883 61.2929C48.0236 61.2929 47.7167 60.8223 47.6963 60.0448C47.6758 59.2673 48.1464 58.8785 48.9649 58.899C49.7833 58.9194 50.1721 59.3082 50.1107 60.0448C50.0493 60.7814 49.681 61.2111 48.883 61.2111V61.2929Z" fill="#4192CF"/>
<path d="M68.5049 58.0804C64.7605 54.3974 60.9548 54.4383 57.2717 58.0804C56.4533 58.8989 55.6348 59.6559 56.3101 61.0473C56.9853 62.4387 57.5991 63.7277 59.5225 63.5026C60.5921 63.431 61.6653 63.431 62.7349 63.5026C63.8935 63.441 65.0546 63.441 66.2133 63.5026C68.0548 63.6868 68.8119 62.6433 69.528 61.1905C70.2441 59.7378 69.4052 58.9603 68.5049 58.0804ZM67.0522 60.5972C66.868 61.1496 66.3156 61.1701 65.8041 61.1905H62.8372C62.347 61.2314 61.8542 61.2314 61.364 61.1905C60.5251 61.0678 59.3179 61.7021 58.9496 60.5972C58.5813 59.4923 59.8294 58.9398 60.6274 58.4283C61.5417 57.8476 62.638 57.6247 63.7065 57.8021C64.7749 57.9796 65.7404 58.5449 66.4179 59.3899C66.7453 59.7378 67.2363 60.0652 67.0522 60.5972Z" fill="#4192CF"/>
<path d="M15.1218 13.4955C15.1254 13.6406 15.0981 13.7849 15.0417 13.9186C14.9853 14.0524 14.9011 14.1726 14.7947 14.2713C14.6882 14.37 14.562 14.4449 14.4244 14.4911C14.2867 14.5372 14.1408 14.5536 13.9964 14.539C13.854 14.5473 13.7113 14.5274 13.5765 14.4805C13.4417 14.4335 13.3176 14.3604 13.2111 14.2653C13.1047 14.1703 13.018 14.0552 12.9562 13.9266C12.8943 13.798 12.8584 13.6585 12.8506 13.516C12.8506 12.8817 13.2189 12.3701 13.8736 12.3292C14.0376 12.2947 14.2075 12.3002 14.3689 12.3453C14.5303 12.3903 14.6784 12.4736 14.8009 12.5879C14.9233 12.7023 15.0164 12.8445 15.0722 13.0025C15.1281 13.1605 15.1451 13.3296 15.1218 13.4955Z" fill="#4192CF"/>
<path d="M16.4112 13.6388C16.3937 13.491 16.4055 13.3412 16.4459 13.198C16.4863 13.0548 16.5546 12.9209 16.6467 12.804C16.7389 12.6872 16.8531 12.5896 16.983 12.5169C17.1128 12.4443 17.2557 12.3979 17.4035 12.3804C17.5513 12.3629 17.7011 12.3747 17.8443 12.4152C17.9875 12.4556 18.1214 12.5238 18.2382 12.616C18.3551 12.7081 18.4526 12.8224 18.5253 12.9522C18.598 13.0821 18.6444 13.225 18.6619 13.3728C18.6858 13.5174 18.6778 13.6656 18.6382 13.8068C18.5987 13.9481 18.5286 14.0789 18.433 14.1901C18.3374 14.3013 18.2186 14.3902 18.0849 14.4505C17.9512 14.5108 17.8059 14.541 17.6593 14.539C17.5176 14.5684 17.3713 14.568 17.2297 14.5378C17.0882 14.5075 16.9545 14.4482 16.8371 14.3636C16.7197 14.2789 16.6212 14.1707 16.5479 14.0459C16.4746 13.9212 16.428 13.7825 16.4112 13.6388Z" fill="#4192CF"/>
<path d="M19.9098 13.5978C19.8745 13.4398 19.8766 13.2758 19.9157 13.1186C19.9548 12.9615 20.0299 12.8157 20.1351 12.6926C20.2403 12.5695 20.3727 12.4726 20.5218 12.4096C20.6709 12.3465 20.8327 12.319 20.9942 12.3292C21.2588 12.3655 21.5013 12.4963 21.6769 12.6976C21.8524 12.8988 21.9491 13.1569 21.9491 13.4239C21.9491 13.691 21.8524 13.949 21.6769 14.1502C21.5013 14.3515 21.2588 14.4823 20.9942 14.5186C20.8619 14.5327 20.7282 14.5197 20.6011 14.4805C20.4739 14.4413 20.3561 14.3767 20.2547 14.2906C20.1533 14.2045 20.0704 14.0987 20.0111 13.9796C19.9518 13.8605 19.9174 13.7306 19.9098 13.5978Z" fill="#4192CF"/>
<path d="M15.1628 26.2019C15.1628 25.1175 15.8789 24.9538 16.6564 25.0766C20.2576 25.6699 23.2449 23.9717 26.3346 22.5803C31.8182 20.0636 37.3632 17.6287 42.7035 15.0301C44.8122 13.8198 47.2359 13.2709 49.6603 13.4546H53.3229C54.1822 13.4546 54.7552 13.6797 54.7347 14.7027C54.7142 15.7258 54.1822 15.8281 53.4252 15.8281H53.241C47.2459 14.7846 42.3557 17.8742 37.2608 20.1454C32.8003 22.1915 28.3193 24.0944 23.9406 26.2838C21.6753 27.2964 19.1905 27.7188 16.7178 27.5114C15.8584 27.4705 15.1218 27.4091 15.1628 26.2019Z" fill="#4192CF"/>
<path d="M55.1645 36.8827C53.323 36.8827 53.5685 35.5732 53.5685 34.4478C53.5685 29.8031 53.5685 25.1585 53.5685 20.5342C53.5685 18.6927 52.9138 17.9152 51.0927 18.0993C50.5152 18.171 49.931 18.171 49.3535 18.0993C47.1233 17.8129 46.489 18.8564 46.5299 20.9639C46.6526 25.6904 46.5299 30.3965 46.5299 35.1231C46.5299 36.0029 46.5299 36.8623 45.2817 36.7804C44.0336 36.6986 44.2792 35.8801 44.2792 35.164V26.9795C44.2792 22.7645 44.2792 22.8873 40.0232 22.7645C37.9771 22.7645 37.1791 23.3169 37.2814 25.4245C37.4247 28.7392 37.2814 32.0539 37.2814 35.3686C37.2814 36.228 37.0359 36.8009 36.0333 36.8213C35.0307 36.8418 34.867 36.1666 34.8875 35.3686V30.8671C34.8875 26.0383 34.8875 26.0792 30.0995 26.2429C28.524 26.2429 27.8284 26.7954 27.8897 28.4322C27.992 30.4157 27.992 32.403 27.8897 34.3865C27.8897 35.2867 28.565 36.8009 26.703 36.7804C24.841 36.7599 25.7004 35.2663 25.5162 34.366C25.4855 34.0325 25.4855 33.6969 25.5162 33.3634C25.5162 29.7418 25.5162 29.7418 21.9969 29.7418C18.4776 29.7418 18.5594 29.7418 18.5594 33.1792C18.5594 33.834 18.5594 34.5092 18.5594 35.2254C18.5594 36.3303 18.273 36.9441 17.0453 36.9032C16.2064 36.9032 14.9992 36.5758 15.122 38.0695C15.2447 39.5631 16.4519 39.0311 17.1681 39.0311C23.3064 39.0311 29.2606 39.0311 35.3171 39.0311H54.1824C54.7962 39.0311 55.6146 39.2358 55.7374 38.2536C55.9829 37.5989 55.9216 36.8827 55.1645 36.8827ZM22.0583 36.7804C20.3396 36.6167 21.158 35.1231 21.1171 34.2023C21.0762 33.2815 20.5032 31.9311 22.222 32.1562C23.9407 32.3813 22.9791 33.8135 23.3064 34.6729C23.1223 35.4914 23.7157 36.9236 22.0583 36.7804ZM32.5958 35.7164C32.6178 35.8595 32.6072 36.0057 32.5648 36.1441C32.5224 36.2825 32.4493 36.4096 32.3509 36.5158C32.2526 36.622 32.1315 36.7046 31.9968 36.7575C31.862 36.8104 31.7171 36.8323 31.5728 36.8213C31.43 36.8462 31.2834 36.8386 31.144 36.7988C31.0046 36.7591 30.876 36.6884 30.7678 36.592C30.6595 36.4956 30.5745 36.376 30.519 36.2421C30.4636 36.1081 30.4391 35.9634 30.4474 35.8187C30.4474 33.7726 30.4474 31.7265 30.4474 29.6804C30.4474 29.0052 30.7338 28.6164 31.4704 28.5959C32.207 28.5755 32.6163 29.0461 32.5958 29.8236V35.7164ZM41.9875 30.9694V35.6755C41.9875 36.3098 41.8033 36.8009 41.0258 36.8213C40.2483 36.8418 39.6754 36.5963 39.6549 35.7574C39.6549 32.5449 39.6549 29.3325 39.6549 26.0997C39.6549 25.404 40.0846 25.0766 40.7598 25.0561C41.435 25.0357 41.9875 25.4244 41.9875 26.2429C41.9739 27.8252 41.9739 29.4007 41.9875 30.9694ZM51.3587 35.389C51.3587 36.2484 51.0927 36.8418 50.1106 36.8623C49.1285 36.8827 48.9648 36.1666 48.9648 35.3481V22.0074C48.9648 21.2504 48.9648 20.4524 50.0287 20.4115C51.0927 20.3705 51.3587 21.1276 51.3587 22.0484C51.3451 26.4953 51.3451 30.9422 51.3587 35.389Z" fill="#4192CF"/>
<path d="M55.1645 36.8827C53.323 36.8827 53.5685 35.5732 53.5685 34.4478C53.5685 29.8031 53.5685 25.1585 53.5685 20.5342C53.5685 18.6927 52.9138 17.9152 51.0927 18.0993C50.5152 18.171 49.931 18.171 49.3535 18.0993C47.1233 17.8129 46.489 18.8564 46.5299 20.9639C46.6526 25.6904 46.5299 30.3965 46.5299 35.1231C46.5299 36.0029 46.5299 36.8623 45.2817 36.7804C44.0336 36.6986 44.2792 35.8801 44.2792 35.164V26.9795C44.2792 22.7645 44.2792 22.8873 40.0232 22.7645C37.9771 22.7645 37.1791 23.3169 37.2814 25.4245C37.4247 28.7392 37.2814 32.0539 37.2814 35.3686C37.2814 36.228 37.0359 36.8009 36.0333 36.8213C35.0307 36.8418 34.867 36.1666 34.8875 35.3686V30.8671C34.8875 26.0383 34.8875 26.0792 30.0995 26.2429C28.524 26.2429 27.8284 26.7954 27.8897 28.4322C27.992 30.4157 27.992 32.403 27.8897 34.3865C27.8897 35.2867 28.565 36.8009 26.703 36.7804C24.841 36.7599 25.7004 35.2663 25.5162 34.366C25.4855 34.0325 25.4855 33.6969 25.5162 33.3634C25.5162 29.7418 25.5162 29.7418 21.9969 29.7418C18.4776 29.7418 18.5594 29.7418 18.5594 33.1792C18.5594 33.834 18.5594 34.5092 18.5594 35.2254C18.5594 36.3303 18.273 36.9441 17.0453 36.9032C16.2064 36.9032 14.9992 36.5758 15.122 38.0695C15.2447 39.5631 16.4519 39.0311 17.1681 39.0311C23.3064 39.0311 29.2606 39.0311 35.3171 39.0311H54.1824C54.7962 39.0311 55.6146 39.2358 55.7374 38.2536C55.9829 37.5989 55.9216 36.8827 55.1645 36.8827ZM22.0583 36.7804C20.3396 36.6167 21.158 35.1231 21.1171 34.2023C21.0762 33.2815 20.5032 31.9311 22.222 32.1562C23.9407 32.3813 22.9791 33.8135 23.3064 34.6729C23.1223 35.4914 23.7157 36.9236 22.0583 36.7804ZM32.5958 35.7164C32.6178 35.8595 32.6072 36.0057 32.5648 36.1441C32.5224 36.2825 32.4493 36.4096 32.3509 36.5158C32.2526 36.622 32.1315 36.7046 31.9968 36.7575C31.862 36.8104 31.7171 36.8323 31.5728 36.8213C31.43 36.8462 31.2834 36.8386 31.144 36.7988C31.0046 36.7591 30.876 36.6884 30.7678 36.592C30.6595 36.4956 30.5745 36.376 30.519 36.2421C30.4636 36.1081 30.4391 35.9634 30.4474 35.8187C30.4474 33.7726 30.4474 31.7265 30.4474 29.6804C30.4474 29.0052 30.7338 28.6164 31.4704 28.5959C32.207 28.5755 32.6163 29.0461 32.5958 29.8236V35.7164ZM41.9875 30.9694V35.6755C41.9875 36.3098 41.8033 36.8009 41.0258 36.8213C40.2483 36.8418 39.6754 36.5963 39.6549 35.7574C39.6549 32.5449 39.6549 29.3325 39.6549 26.0997C39.6549 25.404 40.0846 25.0766 40.7598 25.0561C41.435 25.0357 41.9875 25.4244 41.9875 26.2429C41.9739 27.8252 41.9739 29.4007 41.9875 30.9694ZM51.3587 35.389C51.3587 36.2484 51.0927 36.8418 50.1106 36.8623C49.1285 36.8827 48.9648 36.1666 48.9648 35.3481V22.0074C48.9648 21.2504 48.9648 20.4524 50.0287 20.4115C51.0927 20.3705 51.3587 21.1276 51.3587 22.0484C51.3451 26.4953 51.3451 30.9422 51.3587 35.389Z" fill="#4192CF"/>
<path d="M54.8369 14.7028C54.8369 15.5826 54.2845 15.8282 53.5274 15.8282H53.2409C47.2458 14.7846 42.3556 17.8743 37.2608 20.1455C32.8002 22.1916 28.3192 24.0945 23.9405 26.2838C21.6752 27.2964 19.1904 27.7188 16.7177 27.5115C15.8174 27.5115 15.0808 27.5115 15.1217 26.2224C15.1627 24.9334 15.8379 24.9743 16.6154 25.0971C20.2166 25.6905 23.2039 23.9922 26.2936 22.6008C31.7772 20.0841 37.3221 17.6492 42.6625 15.0506C44.7712 13.8403 47.1949 13.2914 49.6193 13.4751H53.2819C54.2845 13.4342 54.8574 13.6797 54.8369 14.7028Z" fill="#4192CF"/>
<path d="M18.6414 13.3728C18.6654 13.5174 18.6573 13.6656 18.6178 13.8068C18.5782 13.9481 18.5082 14.0789 18.4126 14.1901C18.317 14.3013 18.1981 14.3902 18.0644 14.4505C17.9308 14.5108 17.7855 14.541 17.6388 14.539C17.4986 14.5653 17.3544 14.5624 17.2153 14.5307C17.0762 14.499 16.9451 14.4392 16.83 14.3548C16.7149 14.2704 16.6184 14.1633 16.5464 14.0402C16.4743 13.917 16.4283 13.7804 16.4112 13.6388C16.3937 13.491 16.4055 13.3412 16.4459 13.198C16.4863 13.0548 16.5546 12.9209 16.6467 12.804C16.7389 12.6872 16.8531 12.5896 16.983 12.5169C17.1128 12.4443 17.2557 12.3979 17.4035 12.3804C17.5513 12.3629 17.7011 12.3747 17.8443 12.4152C17.9875 12.4556 18.1214 12.5238 18.2382 12.616C18.3551 12.7081 18.4526 12.8224 18.5253 12.9522C18.598 13.0821 18.6444 13.225 18.6619 13.3728H18.6414Z" fill="#4192CF"/>
<path d="M15.1218 13.4955C15.1254 13.6406 15.0981 13.7849 15.0417 13.9186C14.9853 14.0524 14.9011 14.1726 14.7947 14.2713C14.6882 14.37 14.562 14.4449 14.4244 14.4911C14.2867 14.5372 14.1408 14.5536 13.9964 14.539C13.854 14.5473 13.7113 14.5274 13.5765 14.4805C13.4417 14.4335 13.3176 14.3604 13.2111 14.2653C13.1047 14.1703 13.018 14.0552 12.9562 13.9266C12.8943 13.798 12.8584 13.6585 12.8506 13.516C12.8506 12.8817 13.2189 12.3701 13.8736 12.3292C14.0376 12.2947 14.2075 12.3002 14.3689 12.3453C14.5303 12.3903 14.6784 12.4736 14.8009 12.5879C14.9233 12.7023 15.0164 12.8445 15.0722 13.0025C15.1281 13.1605 15.1451 13.3296 15.1218 13.4955Z" fill="#4192CF"/>
<path d="M22.0991 13.3932C22.1103 13.5336 22.0929 13.6748 22.048 13.8083C22.0031 13.9417 21.9317 14.0648 21.838 14.1699C21.7444 14.275 21.6304 14.3601 21.5029 14.4201C21.3755 14.48 21.2373 14.5135 21.0965 14.5186C20.9566 14.5485 20.8119 14.5475 20.6724 14.5156C20.5329 14.4838 20.4021 14.4218 20.2891 14.3341C20.176 14.2464 20.0835 14.1351 20.018 14.0079C19.9525 13.8807 19.9156 13.7408 19.9098 13.5978C19.8745 13.4398 19.8766 13.2758 19.9157 13.1186C19.9548 12.9615 20.0299 12.8157 20.1351 12.6926C20.2403 12.5695 20.3727 12.4726 20.5218 12.4096C20.6709 12.3465 20.8327 12.319 20.9942 12.3292C21.1381 12.3207 21.2821 12.3421 21.4173 12.392C21.5525 12.4419 21.6759 12.5193 21.7797 12.6193C21.8835 12.7192 21.9655 12.8396 22.0204 12.9728C22.0754 13.106 22.1022 13.2491 22.0991 13.3932Z" fill="#4192CF"/>
</g>
<defs>
<clipPath id="clip0_2_3767">
<rect width="69.9159" height="63" fill="white" transform="translate(0.0419922 0.60498)"/>
</clipPath>
</defs>
</svg>
