<svg width="24" height="25" viewBox="0 0 24 25" fill="none" xmlns="http://www.w3.org/2000/svg">
<path d="M24 12.5124C24 5.82648 18.6281 0.407715 12 0.407715C5.3719 0.407715 0 5.82648 0 12.5124C0 18.5553 4.3875 23.5627 10.125 24.4705V16.0114H7.0781V12.5124H10.125V9.84559C10.125 6.81231 11.9156 5.13611 14.6578 5.13611C15.9703 5.13611 17.3438 5.37253 17.3438 5.37253V8.35142H15.8297C14.3391 8.35142 13.875 9.2853 13.875 10.2428V12.5124H17.2031L16.6711 16.0114H13.875V24.4705C19.6125 23.5627 24 18.5553 24 12.5124Z" fill="#1877F2"/>
<path d="M16.6711 16.0115L17.2031 12.5125H13.875V10.2429C13.875 9.28542 14.3391 8.35154 15.8297 8.35154H17.3438V5.37265C17.3438 5.37265 15.9703 5.13623 14.6578 5.13623C11.9157 5.13623 10.125 6.81243 10.125 9.84571V12.5125H7.07812V16.0115H10.125V24.4707C10.7367 24.5676 11.3625 24.6172 12 24.6172C12.6375 24.6172 13.2633 24.5676 13.875 24.4707V16.0115H16.6711Z" fill="white"/>
</svg>
