<svg width="30" height="30" viewBox="0 0 30 30" fill="none" xmlns="http://www.w3.org/2000/svg">
<path d="M14.5227 0C6.51145 0 0.0151367 6.6595 0.0151367 14.8748C0.0151367 21.4468 4.172 27.0225 9.93631 28.9894C10.6614 29.1271 10.9275 28.6667 10.9275 28.2738C10.9275 27.9191 10.9141 26.7474 10.9078 25.5044C6.87181 26.4042 6.02016 23.7494 6.02016 23.7494C5.36023 22.0301 4.40936 21.5729 4.40936 21.5729C3.09309 20.6497 4.50858 20.6687 4.50858 20.6687C5.96539 20.7736 6.73247 22.2015 6.73247 22.2015C8.0264 24.4756 10.1263 23.8181 10.9542 23.4381C11.0844 22.4767 11.4604 21.8205 11.8753 21.449C8.65295 21.0729 5.26557 19.7975 5.26557 14.0979C5.26557 12.4739 5.8323 11.1469 6.76034 10.1053C6.60971 9.73061 6.11314 8.21772 6.90088 6.16883C6.90088 6.16883 8.11914 5.76905 10.8915 7.69355C12.0487 7.36397 13.2898 7.19869 14.5227 7.19303C15.7556 7.19869 16.9977 7.36397 18.1571 7.69355C20.9261 5.76905 22.1426 6.16883 22.1426 6.16883C22.9323 8.21772 22.4355 9.73061 22.2849 10.1053C23.2151 11.1469 23.7779 12.4739 23.7779 14.0979C23.7779 19.811 20.3841 21.069 17.1536 21.4372C17.6739 21.8988 18.1376 22.804 18.1376 24.1918C18.1376 26.1821 18.1208 27.7839 18.1208 28.2738C18.1208 28.6696 18.3819 29.1335 19.1173 28.9874C24.8785 27.0183 29.0301 21.4446 29.0301 14.8748C29.0301 6.6595 22.5347 0 14.5227 0Z" fill="white"/>
<path d="M5.55285 21.2549C5.52096 21.328 5.40777 21.35 5.30466 21.2997C5.19963 21.2517 5.14064 21.1519 5.1747 21.0785C5.20587 21.0032 5.31929 20.9822 5.42408 21.0327C5.52935 21.0807 5.5893 21.1815 5.55285 21.2549Z" fill="#161514"/>
<path d="M6.13902 21.9199C6.06996 21.985 5.93495 21.9547 5.84335 21.8518C5.74863 21.7491 5.73089 21.6118 5.80091 21.5457C5.87213 21.4806 6.00305 21.5111 6.09801 21.6138C6.19273 21.7177 6.2112 21.854 6.13902 21.9199Z" fill="#161514"/>
<path d="M6.7101 22.7684C6.62137 22.8311 6.4763 22.7723 6.38662 22.6414C6.29789 22.5104 6.29789 22.3533 6.38854 22.2904C6.47846 22.2275 6.62137 22.2841 6.71226 22.4141C6.80074 22.5472 6.80074 22.7043 6.7101 22.7684Z" fill="#161514"/>
<path d="M7.49243 23.5879C7.41306 23.6769 7.24401 23.653 7.12027 23.5316C6.99366 23.4128 6.95841 23.2443 7.03802 23.1552C7.11835 23.066 7.28837 23.0911 7.41306 23.2116C7.53871 23.3301 7.57708 23.4999 7.49243 23.5879Z" fill="#161514"/>
<path d="M8.57105 24.0639C8.53604 24.1792 8.37322 24.2317 8.20921 24.1826C8.04543 24.1322 7.93824 23.997 7.97133 23.8805C8.00538 23.7644 8.16892 23.7097 8.33414 23.7622C8.49768 23.8124 8.6051 23.9466 8.57105 24.0639Z" fill="#161514"/>
<path d="M9.75654 24.152C9.76062 24.2734 9.62154 24.3741 9.44936 24.3763C9.27623 24.3802 9.1362 24.282 9.13428 24.1625C9.13428 24.0398 9.27024 23.94 9.44337 23.9371C9.61554 23.9337 9.75654 24.0312 9.75654 24.152Z" fill="#161514"/>
<path d="M10.8591 23.9609C10.8797 24.0794 10.7601 24.2011 10.5891 24.2335C10.421 24.2648 10.2654 24.1916 10.244 24.074C10.2232 23.9526 10.345 23.8309 10.5128 23.7994C10.684 23.7692 10.8373 23.8404 10.8591 23.9609Z" fill="#161514"/>
</svg>
