<svg width="24" height="25" viewBox="0 0 24 25" fill="none" xmlns="http://www.w3.org/2000/svg">
<ellipse cx="12" cy="12.5124" rx="12" ry="12.1047" fill="white"/>
<path d="M15.2335 4.44238H8.76649C6.13823 4.44238 4 6.59927 4 9.25045V15.7739C4 18.4251 6.13823 20.582 8.76649 20.582H15.2335C17.8618 20.582 20 18.4251 20 15.7739V9.25045C20 6.59927 17.8617 4.44238 15.2335 4.44238ZM18.3904 15.7739C18.3904 17.5326 16.977 18.9583 15.2335 18.9583H8.76649C7.023 18.9583 5.6096 17.5326 5.6096 15.7739V9.25045C5.6096 7.49173 7.023 6.06602 8.76649 6.06602H15.2335C16.977 6.06602 18.3904 7.49173 18.3904 9.25045V15.7739Z" fill="url(#paint0_linear_225_80)"/>
<path d="M12 8.33789C9.7182 8.33789 7.86182 10.2105 7.86182 12.5121C7.86182 14.8138 9.7182 16.6864 12 16.6864C14.2818 16.6864 16.1382 14.8138 16.1382 12.5121C16.1382 10.2104 14.2818 8.33789 12 8.33789ZM12 15.0628C10.6035 15.0628 9.47142 13.9208 9.47142 12.5122C9.47142 11.1035 10.6035 9.96153 12 9.96153C13.3965 9.96153 14.5286 11.1035 14.5286 12.5122C14.5286 13.9208 13.3965 15.0628 12 15.0628Z" fill="url(#paint1_linear_225_80)"/>
<path d="M16.1464 9.36962C16.694 9.36962 17.138 8.9218 17.138 8.36938C17.138 7.81696 16.694 7.36914 16.1464 7.36914C15.5987 7.36914 15.1548 7.81696 15.1548 8.36938C15.1548 8.9218 15.5987 9.36962 16.1464 9.36962Z" fill="url(#paint2_linear_225_80)"/>
<defs>
<linearGradient id="paint0_linear_225_80" x1="12" y1="20.535" x2="12" y2="4.56774" gradientUnits="userSpaceOnUse">
<stop stop-color="#E09B3D"/>
<stop offset="0.3" stop-color="#C74C4D"/>
<stop offset="0.6" stop-color="#C21975"/>
<stop offset="1" stop-color="#7024C4"/>
</linearGradient>
<linearGradient id="paint1_linear_225_80" x1="12" y1="20.535" x2="12" y2="4.56773" gradientUnits="userSpaceOnUse">
<stop stop-color="#E09B3D"/>
<stop offset="0.3" stop-color="#C74C4D"/>
<stop offset="0.6" stop-color="#C21975"/>
<stop offset="1" stop-color="#7024C4"/>
</linearGradient>
<linearGradient id="paint2_linear_225_80" x1="16.1464" y1="20.5351" x2="16.1464" y2="4.56788" gradientUnits="userSpaceOnUse">
<stop stop-color="#E09B3D"/>
<stop offset="0.3" stop-color="#C74C4D"/>
<stop offset="0.6" stop-color="#C21975"/>
<stop offset="1" stop-color="#7024C4"/>
</linearGradient>
</defs>
</svg>
