<svg width="30" height="30" viewBox="0 0 30 30" fill="none" xmlns="http://www.w3.org/2000/svg">
<path d="M0 14.5075C0 6.49521 6.49521 0 14.5075 0C22.5197 0 29.0149 6.49521 29.0149 14.5075C29.0149 22.5197 22.5197 29.0149 14.5075 29.0149C6.49521 29.0149 0 22.5197 0 14.5075Z" fill="#0077B5"/>
<path fill-rule="evenodd" clip-rule="evenodd" d="M10.4692 8.95992C10.4692 9.90841 9.75521 10.6674 8.60884 10.6674H8.58783C7.48407 10.6674 6.77051 9.90841 6.77051 8.95992C6.77051 7.99137 7.5058 7.25366 8.63051 7.25366C9.75521 7.25366 10.4478 7.99137 10.4692 8.95992ZM10.2522 12.0155V21.8937H6.96448V12.0155H10.2522ZM22.1092 21.8937L22.1094 16.2298C22.1094 13.1957 20.4874 11.7835 18.324 11.7835C16.5784 11.7835 15.7969 12.7423 15.3605 13.4149V12.0157H12.0724C12.1158 12.9427 12.0724 21.8939 12.0724 21.8939H15.3605V16.3771C15.3605 16.0819 15.3819 15.7874 15.4688 15.576C15.7064 14.9862 16.2474 14.3756 17.1557 14.3756C18.3459 14.3756 18.8216 15.2814 18.8216 16.6088V21.8937H22.1092Z" fill="white"/>
</svg>
