<svg width="86" height="69" viewBox="0 0 86 69" fill="none" xmlns="http://www.w3.org/2000/svg">
<g clip-path="url(#clip0_2_4254)">
<path d="M31.771 48.6188H37.9573L50.1478 0H43.6268L31.771 48.6188Z" fill="url(#paint0_linear_2_4254)"/>
<path d="M37.6021 53.3246H43.7883L55.9788 4.70581H49.4578L37.6021 53.3246Z" fill="url(#paint1_linear_2_4254)"/>
<path d="M70.8089 6.27246H50.1479L48.5566 12.5478L63.4776 12.2756C64.0664 12.2762 64.6463 12.4177 65.1674 12.6881C65.6885 12.9585 66.1353 13.3496 66.4694 13.8278L75.9147 27.3544C76.4423 28.111 76.7248 29.0077 76.7248 29.926C76.7248 30.8442 76.4423 31.7409 75.9147 32.4975L66.7219 45.6621C66.3101 46.2514 65.7594 46.7333 65.117 47.0662C64.4746 47.3991 63.7599 47.5732 63.0342 47.5734H45.9082L44.3169 53.3246H70.8559C71.4869 53.3241 72.1066 53.1595 72.6525 52.8473C73.1984 52.5351 73.6512 52.0864 73.9652 51.5466L85.3923 32.0255C85.7905 31.3458 86.0001 30.5748 86.0001 29.7899C86.0001 29.0049 85.7905 28.2339 85.3923 27.5542L73.9887 8.08528C73.6661 7.53485 73.2026 7.07766 72.6446 6.7595C72.0865 6.44135 71.4535 6.2734 70.8089 6.27246Z" fill="url(#paint2_linear_2_4254)"/>
<path d="M15.1912 1.56958H41.6685L40.0772 7.31789L22.5225 7.57273C21.9332 7.57284 21.3527 7.71418 20.8311 7.98456C20.3094 8.25494 19.8621 8.64628 19.5277 9.12492L10.0854 22.6486C9.55779 23.4052 9.27533 24.3019 9.27533 25.2202C9.27533 26.1385 9.55779 27.0351 10.0854 27.7917L19.2782 40.9564C19.6904 41.5446 20.2415 42.0251 20.8839 42.3566C21.5264 42.688 22.2409 42.8604 22.9659 42.859H38.4859L36.8974 48.6102H15.1413C14.5131 48.6095 13.8961 48.4466 13.3517 48.1377C12.8072 47.8288 12.3542 47.3847 12.0379 46.8495L0.607798 27.3284C0.209632 26.6488 0 25.8777 0 25.0928C0 24.3078 0.209632 23.5368 0.607798 22.8572L12.0085 3.3824C12.3308 2.83115 12.7947 2.37336 13.3534 2.05513C13.9121 1.73689 14.546 1.56942 15.1912 1.56958Z" fill="url(#paint3_linear_2_4254)"/>
<g style="mix-blend-mode:soft-light" opacity="0.48">
<g style="mix-blend-mode:soft-light" opacity="0.48">
<path d="M31.771 48.6188H37.9573L50.1478 0H43.6268L31.771 48.6188Z" fill="white"/>
</g>
<g style="mix-blend-mode:soft-light" opacity="0.48">
<path d="M37.6021 53.3246H43.7883L55.9788 4.70581H49.4578L37.6021 53.3246Z" fill="white"/>
</g>
<g style="mix-blend-mode:soft-light" opacity="0.48">
<path d="M70.8089 6.27246H50.1479L48.5566 12.5478L63.4776 12.2756C64.0664 12.2762 64.6463 12.4177 65.1674 12.6881C65.6885 12.9585 66.1353 13.3496 66.4694 13.8278L75.9147 27.3544C76.4423 28.111 76.7248 29.0077 76.7248 29.926C76.7248 30.8442 76.4423 31.7409 75.9147 32.4975L66.7219 45.6621C66.3101 46.2514 65.7594 46.7333 65.117 47.0662C64.4746 47.3991 63.7599 47.5732 63.0342 47.5734H45.9082L44.3169 53.3246H70.8559C71.4869 53.3241 72.1066 53.1595 72.6525 52.8473C73.1984 52.5351 73.6512 52.0864 73.9652 51.5466L85.3923 32.0255C85.7905 31.3458 86.0001 30.5748 86.0001 29.7899C86.0001 29.0049 85.7905 28.2339 85.3923 27.5542L73.9887 8.08528C73.6661 7.53485 73.2026 7.07766 72.6446 6.7595C72.0865 6.44135 71.4535 6.2734 70.8089 6.27246Z" fill="white"/>
</g>
<g style="mix-blend-mode:soft-light" opacity="0.48">
<path d="M15.1912 1.56958H41.6685L40.0772 7.31789L22.5225 7.57273C21.9332 7.57284 21.3527 7.71418 20.8311 7.98456C20.3094 8.25494 19.8621 8.64628 19.5277 9.12492L10.0854 22.6486C9.55779 23.4052 9.27533 24.3019 9.27533 25.2202C9.27533 26.1385 9.55779 27.0351 10.0854 27.7917L19.2782 40.9564C19.6904 41.5446 20.2415 42.0251 20.8839 42.3566C21.5264 42.688 22.2409 42.8604 22.9659 42.859H38.4859L36.8974 48.6102H15.1413C14.5131 48.6095 13.8961 48.4466 13.3517 48.1377C12.8072 47.8288 12.3542 47.3847 12.0379 46.8495L0.607798 27.3284C0.209632 26.6488 0 25.8777 0 25.0928C0 24.3078 0.209632 23.5368 0.607798 22.8572L12.0085 3.3824C12.3308 2.83115 12.7947 2.37336 13.3534 2.05513C13.9121 1.73689 14.546 1.56942 15.1912 1.56958Z" fill="white"/>
</g>
</g>
<path d="M8.10645 68.9999V58.6356H16.8618C17.0938 58.6333 17.3239 58.6766 17.5387 58.7631C17.7535 58.8496 17.9486 58.9775 18.1127 59.1393C18.2767 59.3011 18.4064 59.4936 18.4941 59.7055C18.5818 59.9173 18.6258 60.1443 18.6234 60.3731V67.2711C18.6258 67.4999 18.5818 67.7269 18.4941 67.9387C18.4064 68.1506 18.2767 68.3431 18.1127 68.5049C17.9486 68.6667 17.7535 68.7946 17.5387 68.8811C17.3239 68.9676 17.0938 69.0109 16.8618 69.0086L8.10645 68.9999ZM9.86808 67.8416H16.8618C17.0126 67.8408 17.157 67.7814 17.2637 67.6762C17.3703 67.571 17.4306 67.4285 17.4314 67.2798V60.3644C17.4306 60.2157 17.3703 60.0732 17.2637 59.968C17.157 59.8628 17.0126 59.8034 16.8618 59.8026H9.85927C9.70844 59.8034 9.56401 59.8628 9.45736 59.968C9.35071 60.0732 9.29045 60.2157 9.28968 60.3644V67.2711C9.29045 67.4199 9.35071 67.5623 9.45736 67.6675C9.56401 67.7727 9.70844 67.8321 9.85927 67.8329L9.86808 67.8416Z" fill="url(#paint4_linear_2_4254)"/>
<path d="M20.1914 59.0961V57.9175H21.3864V59.0961H20.1914ZM20.1914 69V60.6512H21.3864V69H20.1914Z" fill="#1D1D1B"/>
<path d="M23.0361 69V60.6512H29.8948C30.2049 60.649 30.5097 60.7312 30.7756 60.8886C31.0393 61.0439 31.2594 61.262 31.4156 61.5228C31.5761 61.7847 31.6595 62.0856 31.6564 62.3916V69H30.4614V62.3916C30.4624 62.3181 30.448 62.2453 30.4192 62.1775C30.3905 62.1098 30.3478 62.0486 30.2941 61.9977C30.2419 61.9445 30.1794 61.9022 30.1103 61.8733C30.0412 61.8445 29.9669 61.8297 29.8918 61.8298H24.8154C24.6624 61.8312 24.5159 61.8914 24.4073 61.9977C24.3513 62.0474 24.3067 62.1081 24.2763 62.176C24.2459 62.2439 24.2305 62.3174 24.2311 62.3916V69H23.0361Z" fill="#1D1D1B"/>
<path d="M37.4551 69.0001V58.6502H46.2104C46.5206 58.6476 46.8255 58.7298 47.0912 58.8877C47.3522 59.0407 47.5702 59.2558 47.7254 59.5132C47.8827 59.7762 47.9639 60.0766 47.9603 60.3819V63.4197C47.9649 63.7251 47.8835 64.0258 47.7254 64.2885C47.5711 64.5473 47.3529 64.7635 47.0912 64.9169C46.8249 65.0735 46.5204 65.1556 46.2104 65.1543H38.6383V69.0116L37.4551 69.0001ZM39.2167 63.9612H46.2221C46.2966 63.9627 46.3706 63.9493 46.4397 63.9219C46.5088 63.8946 46.5716 63.8538 46.6244 63.802C46.6784 63.7526 46.7213 63.6925 46.7501 63.6256C46.779 63.5587 46.7931 63.4866 46.7917 63.4139V60.379C46.791 60.2303 46.7307 60.0878 46.6241 59.9826C46.5174 59.8774 46.373 59.818 46.2221 59.8172H39.205C39.1305 59.8163 39.0566 59.8304 38.9879 59.8588C38.9192 59.8872 38.8572 59.9293 38.8057 59.9823C38.7518 60.0337 38.7092 60.0954 38.6804 60.1636C38.6516 60.2318 38.6373 60.3052 38.6383 60.379V63.4197C38.6369 63.4924 38.6511 63.5645 38.6799 63.6314C38.7088 63.6983 38.7516 63.7584 38.8057 63.8078C38.8584 63.8584 38.9209 63.8981 38.9895 63.9245C39.0581 63.9509 39.1314 63.9634 39.205 63.9612H39.2167ZM46.3396 69.0001L42.9103 64.969H44.4576L47.9016 68.9856V69.0001H46.3396Z" fill="url(#paint5_linear_2_4254)"/>
<path d="M50.3033 68.7624C50.0395 68.6071 49.8195 68.389 49.6632 68.1282C49.5029 67.8662 49.4195 67.5655 49.4224 67.2595V62.3944C49.4193 62.0884 49.5027 61.7875 49.6632 61.5256C49.8195 61.2648 50.0395 61.0468 50.3033 60.8914C50.569 60.7336 50.8739 60.6514 51.1841 60.654H56.2635C56.5785 60.6497 56.8885 60.732 57.159 60.8914C57.4228 61.0475 57.6437 61.2653 57.8019 61.5256C57.9624 61.7875 58.0458 62.0884 58.0427 62.3944V67.2595C58.0457 67.5655 57.9623 67.8662 57.8019 68.1282C57.6437 68.3885 57.4228 68.6063 57.159 68.7624C56.888 68.9206 56.5783 69.0028 56.2635 68.9999H51.1841C50.8741 69.0011 50.5695 68.919 50.3033 68.7624ZM51.1841 67.8184H56.2635C56.3379 67.8193 56.4118 67.8052 56.4805 67.7768C56.5492 67.7484 56.6112 67.7063 56.6628 67.6533C56.7166 67.6019 56.7593 67.5402 56.788 67.472C56.8168 67.4038 56.8311 67.3305 56.8301 67.2566V62.3915C56.8257 62.2444 56.7647 62.1044 56.6595 62C56.5542 61.8957 56.4126 61.8348 56.2635 61.8297H51.1841C51.109 61.8292 51.0346 61.8439 50.9654 61.8728C50.8962 61.9016 50.8338 61.9441 50.7818 61.9976C50.7281 62.0485 50.6855 62.1097 50.6567 62.1774C50.6279 62.2452 50.6135 62.318 50.6145 62.3915V67.2566C50.6153 67.4053 50.6755 67.5478 50.7822 67.653C50.8888 67.7582 51.0333 67.8176 51.1841 67.8184Z" fill="#1D1D1B"/>
<path d="M59.9922 68.7625C59.7285 68.6072 59.5084 68.3892 59.3522 68.1283C59.1918 67.8664 59.1085 67.5656 59.1114 67.2596V62.3945C59.1083 62.0885 59.1917 61.7877 59.3522 61.5257C59.5084 61.2649 59.7285 61.0469 59.9922 60.8915C60.2637 60.732 60.5747 60.6498 60.8907 60.6541H66.5396V57.9175H67.7346V69H60.8907C60.5749 69.0028 60.2643 68.9207 59.9922 68.7625ZM60.8907 67.8185H65.97C66.1209 67.8177 66.2653 67.7583 66.3719 67.6531C66.4786 67.5479 66.5389 67.4054 66.5396 67.2567V62.3916C66.5406 62.3181 66.5262 62.2453 66.4975 62.1775C66.4687 62.1098 66.4261 62.0486 66.3723 61.9978C66.3201 61.9445 66.2576 61.9022 66.1885 61.8733C66.1194 61.8445 66.0451 61.8297 65.97 61.8298H60.8907C60.8156 61.8297 60.7413 61.8445 60.6722 61.8733C60.6031 61.9022 60.5406 61.9445 60.4884 61.9978C60.4346 62.0486 60.392 62.1098 60.3632 62.1775C60.3345 62.2453 60.3201 62.3181 60.3211 62.3916V67.2567C60.3218 67.4054 60.3821 67.5479 60.4887 67.6531C60.5954 67.7583 60.7398 67.8177 60.8907 67.8185Z" fill="#1D1D1B"/>
<path d="M71.0322 69.0001C70.7221 69.0018 70.4175 68.9197 70.1514 68.7626C69.8875 68.6065 69.6667 68.3887 69.5084 68.1285C69.3481 67.8665 69.2647 67.5657 69.2677 67.2597V64.2364H76.6812V62.3917C76.6822 62.3183 76.6678 62.2454 76.639 62.1777C76.6102 62.1099 76.5676 62.0487 76.5138 61.9979C76.4619 61.9444 76.3994 61.9019 76.3303 61.873C76.2611 61.8441 76.1867 61.8295 76.1116 61.8299H69.2677V60.6513H76.1116C76.4276 60.6467 76.7387 60.7289 77.01 60.8888C77.2738 61.0441 77.4938 61.2621 77.6501 61.523C77.8106 61.7849 77.894 62.0857 77.8909 62.3917V69.0001H71.0322ZM71.0322 67.8186H76.6812V65.415H70.4656V67.2568C70.4645 67.3307 70.4789 67.404 70.5076 67.4722C70.5364 67.5405 70.5791 67.6022 70.6329 67.6535C70.6844 67.7066 70.7465 67.7486 70.8152 67.777C70.8839 67.8054 70.9577 67.8196 71.0322 67.8186Z" fill="#1D1D1B"/>
</g>
<defs>
<linearGradient id="paint0_linear_2_4254" x1="31.3834" y1="55.7311" x2="49.0078" y2="-4.77981" gradientUnits="userSpaceOnUse">
<stop offset="0.15" stop-color="#FCFDFE"/>
<stop offset="0.2" stop-color="#B9D5EC"/>
<stop offset="0.25" stop-color="#84B5DD"/>
<stop offset="0.3" stop-color="#5E9ED3"/>
<stop offset="0.33" stop-color="#4790CC"/>
<stop offset="0.35" stop-color="#3E8BCA"/>
<stop offset="0.42" stop-color="#3D87C6"/>
<stop offset="0.49" stop-color="#3B7BBC"/>
<stop offset="0.56" stop-color="#3668A9"/>
<stop offset="0.63" stop-color="#304C90"/>
<stop offset="0.68" stop-color="#2A3177"/>
</linearGradient>
<linearGradient id="paint1_linear_2_4254" x1="35.2855" y1="49.9365" x2="57.6823" y2="7.44933" gradientUnits="userSpaceOnUse">
<stop offset="0.18" stop-color="#2A3177"/>
<stop offset="0.62" stop-color="#3E8BCA"/>
<stop offset="0.63" stop-color="#458FCC"/>
<stop offset="0.76" stop-color="#94BFE2"/>
<stop offset="0.87" stop-color="#CEE1F2"/>
<stop offset="0.96" stop-color="#F2F7FB"/>
<stop offset="1" stop-color="white"/>
</linearGradient>
<linearGradient id="paint2_linear_2_4254" x1="44.3169" y1="29.7985" x2="86.0001" y2="29.7985" gradientUnits="userSpaceOnUse">
<stop stop-color="#3E8BCA"/>
<stop offset="0.08" stop-color="#3D87C7"/>
<stop offset="0.17" stop-color="#3A7BBE"/>
<stop offset="0.25" stop-color="#3467AF"/>
<stop offset="0.29" stop-color="#315CA7"/>
<stop offset="0.39" stop-color="#30549E"/>
<stop offset="0.54" stop-color="#2C3F87"/>
<stop offset="0.62" stop-color="#2A3177"/>
<stop offset="1" stop-color="#4192CF"/>
</linearGradient>
<linearGradient id="paint3_linear_2_4254" x1="3.40637e-05" y1="25.0928" x2="41.6685" y2="25.0928" gradientUnits="userSpaceOnUse">
<stop stop-color="#3E8BCA"/>
<stop offset="0.08" stop-color="#3D87C7"/>
<stop offset="0.17" stop-color="#3A7BBE"/>
<stop offset="0.25" stop-color="#3467AF"/>
<stop offset="0.29" stop-color="#315CA7"/>
<stop offset="0.39" stop-color="#30549E"/>
<stop offset="0.54" stop-color="#2C3F87"/>
<stop offset="0.62" stop-color="#2A3177"/>
<stop offset="1" stop-color="#4192CF"/>
</linearGradient>
<linearGradient id="paint4_linear_2_4254" x1="8.10645" y1="63.8163" x2="18.6146" y2="63.8163" gradientUnits="userSpaceOnUse">
<stop stop-color="#2A3177"/>
<stop offset="0.7" stop-color="#315CA7"/>
<stop offset="0.77" stop-color="#3361AB"/>
<stop offset="0.87" stop-color="#3770B6"/>
<stop offset="0.97" stop-color="#3E89C8"/>
<stop offset="1" stop-color="#4192CF"/>
</linearGradient>
<linearGradient id="paint5_linear_2_4254" x1="37.4551" y1="63.8251" x2="47.9632" y2="63.8251" gradientUnits="userSpaceOnUse">
<stop stop-color="#2A3177"/>
<stop offset="0.7" stop-color="#315CA7"/>
<stop offset="0.77" stop-color="#3361AB"/>
<stop offset="0.87" stop-color="#3770B6"/>
<stop offset="0.97" stop-color="#3E89C8"/>
<stop offset="1" stop-color="#4192CF"/>
</linearGradient>
<clipPath id="clip0_2_4254">
<rect width="86" height="69" fill="white"/>
</clipPath>
</defs>
</svg>
