<svg width="93" height="72" viewBox="0 0 93 72" fill="none" xmlns="http://www.w3.org/2000/svg">
<path d="M3.65778 71.754L3.65778 66.5056C11.1168 63.7922 16.9621 59.5078 21.1936 53.6525C25.4252 47.8686 27.541 41.8347 27.541 35.551C27.541 34.1943 27.3258 33.1946 26.8955 32.5519C26.6086 32.1235 26.2859 31.9093 25.9273 31.9093C25.5686 31.9093 25.0307 32.1592 24.3135 32.659C22.0184 34.3014 19.1137 35.1225 15.5994 35.1225C11.5113 35.1225 7.88934 33.4445 4.73361 30.0884C1.57787 26.8037 -4.01285e-07 22.8764 0 18.3063C4.20095e-07 13.5221 1.82889 9.30914 5.48668 5.66742C9.07275 2.0257 13.4477 0.204834 18.6117 0.204834C24.6363 0.204835 29.8361 2.66835 34.2111 7.59539C38.5861 12.5224 40.7736 19.1275 40.7736 27.4107C40.7736 37.0505 37.7971 45.6907 31.8443 53.3312C25.8914 60.9717 16.4959 67.1126 3.65778 71.754ZM55.4047 71.754V66.5056C62.8637 63.7922 68.709 59.5078 72.9406 53.6525C77.1721 47.8686 79.2879 41.8348 79.2879 35.551C79.2879 34.1943 79.0727 33.1946 78.6424 32.5519C78.3555 32.1235 78.0328 31.9093 77.6742 31.9093C77.3156 31.9093 76.7777 32.1592 76.0604 32.659C73.7654 34.3014 70.8607 35.1226 67.3463 35.1226C63.2582 35.1226 59.6363 33.4445 56.4805 30.0884C53.3248 26.8037 51.7469 22.8764 51.7469 18.3064C51.7469 13.5221 53.5758 9.30915 57.2336 5.66742C60.8197 2.0257 65.1947 0.204838 70.3586 0.204838C76.3832 0.204839 81.583 2.66836 85.958 7.5954C90.333 12.5224 92.5205 19.1275 92.5205 27.4107C92.5205 37.0505 89.5441 45.6907 83.5912 53.3312C77.6383 60.9717 68.2428 67.1126 55.4047 71.754Z" fill="white"/>
</svg>
